<svg xmlns="http://www.w3.org/2000/svg" width="17.67" height="12.281" viewBox="0 0 17.67 12.281"><defs><style>.a{fill:#fff;}</style></defs><g transform="translate(-90.875 -90.893)"><path class="a" d="M18263.9,18069.074h-6.865a1.57,1.57,0,0,1-1.568-1.568v-1.129h1.66a1.462,1.462,0,0,0,1.459-1.463v-3.967a1.46,1.46,0,0,0-1.459-1.459h-1.66v-1.119a1.572,1.572,0,0,1,1.568-1.562h6.865v3.48a2.683,2.683,0,0,0-.014,5.3l.014,3.484Zm7.674-.014h-6.9v-3.48a2.685,2.685,0,0,0,.014-5.307l-.014-3.48h6.9a1.575,1.575,0,0,1,1.568,1.563v1.119h-1.568a1.461,1.461,0,0,0-1.457,1.463v3.982a1.461,1.461,0,0,0,1.457,1.463h1.537v1.119A1.572,1.572,0,0,1,18271.576,18069.061Zm-6.895-4.256v0l-.008-3.754a1.918,1.918,0,0,1,.01,3.756Zm-.779,0h0a1.916,1.916,0,0,1-.006-3.752l.008,3.75Z" transform="translate(-18164.594 -17965.9)"/></g></svg>