<svg xmlns="http://www.w3.org/2000/svg" width="18" height="18" viewBox="0 0 18 18"><defs><style>.a,.b{fill:#fff;}.a{opacity:0;}</style></defs><g transform="translate(-115 -312)"><rect class="a" width="18" height="18" transform="translate(115 312)"/><path class="b" d="M175.643,105.512a3.75,3.75,0,0,1,2.01-3.407,4.309,4.309,0,0,0-3.4-1.791c-1.426-.112-2.985.831-3.557.831-.6,0-1.984-.792-3.07-.792-2.241.035-4.623,1.787-4.623,5.352a10.016,10.016,0,0,0,.578,3.262c.515,1.475,2.371,5.09,4.307,5.032,1.012-.024,1.729-.718,3.046-.718,1.279,0,1.941.718,3.07.718,1.954-.028,3.632-3.314,4.121-4.794A3.985,3.985,0,0,1,175.643,105.512Zm-2.274-6.6A3.787,3.787,0,0,0,174.334,96a4.262,4.262,0,0,0-2.728,1.4,3.845,3.845,0,0,0-1.028,2.89A3.376,3.376,0,0,0,173.369,98.914Z" transform="translate(-46.561 216)"/></g></svg>