<svg xmlns="http://www.w3.org/2000/svg" width="32" height="32" viewBox="0 0 32 32"><defs><style>.a{fill:#2e6bc4;}.b{fill:#fff;}</style></defs><g transform="translate(0.001 0.05)"><rect class="a" width="32" height="32" rx="16" transform="translate(-0.001 -0.05)"/><path class="b" d="M64.369,64.128a.588.588,0,0,0,.242-.58.637.637,0,0,0-.435-.483,3.667,3.667,0,0,1-1.691-.628,8.1,8.1,0,0,0,3.381-6.231,9.836,9.836,0,0,0-9.757-9.661,9.6,9.6,0,0,0-9.564,9.612c0,5.265,3.526,9.033,8.936,9.612.531.048,1.014.1,1.546.1A15.181,15.181,0,0,0,64.369,64.128Zm-1.836-.193" transform="translate(-40.233 -40.231)"/><path class="a" d="M50.61,57.67a.931.931,0,0,1-.918-.725l-.58-2.174a.949.949,0,1,1,1.836-.483l.58,2.174a.931.931,0,0,1-.676,1.159A.435.435,0,0,1,50.61,57.67Zm4.057.048a.931.931,0,0,1-.918-.725l-.58-2.174a.949.949,0,1,1,1.836-.483l.58,2.174a.931.931,0,0,1-.676,1.159.435.435,0,0,1-.242.048Z" transform="translate(-40.047 -39.714)"/></g></svg>