<svg xmlns="http://www.w3.org/2000/svg" width="32" height="32" viewBox="0 0 32 32"><defs><style>.a{fill:#2e6bc4;opacity:0;}.b,.c{fill:gray;}.b{stroke:gray;}</style></defs><g transform="translate(0.001 0.217)"><rect class="a" width="32" height="32" rx="16" transform="translate(-0.001 -0.217)"/><g transform="translate(-1.674 -1.893)"><path class="b" d="M68.685,68.385a.73.73,0,0,0,.3-.72.791.791,0,0,0-.54-.6,4.555,4.555,0,0,1-2.1-.78,10.062,10.062,0,0,0,4.2-7.74,12.218,12.218,0,0,0-12.12-12,11.92,11.92,0,0,0-11.88,11.94c0,6.54,4.38,11.22,11.1,11.94.66.06,1.26.12,1.92.12C63.225,70.545,66.945,69.525,68.685,68.385Zm-2.28-.24a20.351,20.351,0,0,1-8.64,1.08c-6.18-.72-10.02-4.8-10.02-10.8a10.7,10.7,0,0,1,10.68-10.68,10.975,10.975,0,0,1,10.92,10.8,8.656,8.656,0,0,1-4.44,7.14.653.653,0,0,0-.42.6.714.714,0,0,0,.24.66l.18.18a4.761,4.761,0,0,0,1.5,1.02" transform="translate(-40.872 -40.869)"/><path class="c" d="M50.983,58.666a1.157,1.157,0,0,1-1.141-.9l-.721-2.7a1.18,1.18,0,1,1,2.282-.6l.721,2.7a1.157,1.157,0,0,1-.841,1.441A.541.541,0,0,1,50.983,58.666Zm5.045.06a1.157,1.157,0,0,1-1.141-.9l-.721-2.7a1.18,1.18,0,0,1,2.282-.6l.721,2.7a1.157,1.157,0,0,1-.841,1.441.541.541,0,0,1-.3.06Z" transform="translate(-40.024 -38.527)"/></g></g></svg>