<svg xmlns="http://www.w3.org/2000/svg" width="20" height="20" viewBox="0 0 20 20"><defs><style>.a{fill:#eaeaea;opacity:0;}.b{fill:#fff;}.c{fill:#16c15e;}.d{fill:#d52c33;}</style></defs><g transform="translate(2.781 2.236)"><rect class="a" width="20" height="20" transform="translate(-2.781 -2.236)"/><g transform="translate(-1.602 -1.602)"><circle class="b" cx="8" cy="8" r="8" transform="translate(0.821 1.366)"/><path class="c" d="M71.8,184.9a7.6,7.6,0,1,0,7.6,7.6A7.61,7.61,0,0,0,71.8,184.9Zm6.942,5.734-.59-.318a7.131,7.131,0,0,0-1.667-3.263A7.21,7.21,0,0,1,78.744,190.634ZM75.3,196.26l-2.494-.672-.489-2.2,1.82-2.036,2.56.781.428,2.593Zm-5.046,1.433-2.967-1.585.051-2.463,2.028-1.3,2.547,1.132.484,2.171Zm-4.876-5.716a6.969,6.969,0,0,1,1.209-3.9l1.423-.321,1.43,1.374-.31,2.873L67.2,193.25Zm11.454-.232-2.481-.756-1.491-2.616.911-1.71,1.873.1a7.435,7.435,0,0,1,2.1,3.626Zm-4.3-6.4.865,1.132-.924,1.733-2.764.606-1.354-1.3.4-1.535a7.141,7.141,0,0,1,3.039-.674A7.032,7.032,0,0,1,72.537,185.35Zm-6.558,2.939a6.84,6.84,0,0,0-.993,3.945l-.361.682c-.008-.137-.013-.275-.013-.415A7.145,7.145,0,0,1,65.979,188.29Zm-.041,8.368.911-.316,3.555,1.9.013-.023,1.064,1-.173.453a7.189,7.189,0,0,1-5.37-3.016Zm5.807,3.031.155-.407a21.182,21.182,0,0,0,2.914-.769l.372.326a7.138,7.138,0,0,1-3.385.847A.206.206,0,0,1,71.746,199.688Zm3.817-1.064-.425-.374.285-1.55,1.97-1.652,1,.313A7.239,7.239,0,0,1,75.563,198.625Z" transform="translate(-62.981 -183.135)"/></g><path class="d" d="M9.32,1.165,8.156,0,4.66,3.5,1.165,0,0,1.165l3.5,3.5L0,8.155,1.165,9.32l3.495-3.5,3.5,3.5L9.32,8.155,5.825,4.66Z" transform="translate(2.559 3.104)"/></g></svg>