<svg xmlns="http://www.w3.org/2000/svg" width="20" height="20" viewBox="0 0 20 20"><defs><style>.a{fill:#eaeaea;opacity:0;}.b{fill:#fff;}.c{fill:#16c15e;}</style></defs><g transform="translate(-0.344 0.236)"><rect class="a" width="20" height="20" transform="translate(0.344 -0.236)"/><g transform="translate(1.395 1.395)"><circle class="b" cx="8" cy="8" r="8" transform="translate(0.949 0.37)"/><path class="c" d="M71.805,184.9a7.605,7.605,0,1,0,7.605,7.605A7.614,7.614,0,0,0,71.805,184.9Zm6.946,5.737-.591-.318a7.135,7.135,0,0,0-1.668-3.264A7.214,7.214,0,0,1,78.751,190.637Zm-3.442,5.63-2.5-.672-.489-2.2,1.821-2.037,2.561.782.428,2.595-1.826,1.53ZM70.26,197.7l-2.969-1.586.051-2.465,2.029-1.3,2.549,1.133.484,2.172Zm-4.879-5.719a6.972,6.972,0,0,1,1.209-3.9l1.423-.321,1.431,1.375-.311,2.875L67.2,193.254Zm11.46-.232-2.483-.756-1.492-2.617.912-1.711,1.874.1a7.438,7.438,0,0,1,2.1,3.628Zm-4.3-6.4.866,1.133-.924,1.734-2.765.606-1.355-1.3.4-1.535a7.144,7.144,0,0,1,3.04-.675A7.039,7.039,0,0,1,72.541,185.351Zm-6.562,2.941a6.843,6.843,0,0,0-.993,3.947l-.362.682c-.008-.137-.013-.275-.013-.415A7.148,7.148,0,0,1,65.98,188.291Zm-.041,8.372.912-.316,3.557,1.9.013-.023,1.064,1-.173.453a7.192,7.192,0,0,1-5.372-3.017Zm5.81,3.033.155-.407a21.19,21.19,0,0,0,2.915-.769l.372.326a7.141,7.141,0,0,1-3.386.848A.207.207,0,0,1,71.749,199.7Zm3.819-1.064-.425-.374.285-1.551,1.971-1.652,1,.313A7.243,7.243,0,0,1,75.569,198.632Z" transform="translate(-62.856 -184.136)"/></g></g></svg>