<svg xmlns="http://www.w3.org/2000/svg" width="20" height="20" viewBox="0 0 20 20"><defs><style>.a{fill:#fff;opacity:0;}.b{fill:#272636;}</style></defs><g transform="translate(-20 -202.001)"><rect class="a" width="20" height="20" transform="translate(20 202.001)"/><path class="b" d="M19.047,10.013A9,9,0,1,0,8.931,18.934a4.494,4.494,0,0,0,.918.083,2.9,2.9,0,0,0,.3-.015A8.993,8.993,0,0,0,19.047,10.013Zm-1.286.127a8.8,8.8,0,0,0-.175-1.314c.008-.152.01-.3.006-.431a7.73,7.73,0,0,1,.17,1.618C17.761,10.056,17.761,10.1,17.76,10.14ZM2.339,10.013A7.732,7.732,0,0,1,2.5,8.424a.817.817,0,0,0,1.309-.184c.343.2.8.241.8.649,0,1.347.048,2.79,1.271,2.812a1.744,1.744,0,0,1,.991,1.045c.107.276.528,0,.991,0,.231,0,0,.389,0,1.23S9.674,16.1,9.674,16.1a9.694,9.694,0,0,0,.061,1.361,3.024,3.024,0,0,0-1.021.138A7.709,7.709,0,0,1,2.339,10.013Zm9.61,7.47c-.04-.2-.215-.3-.534-.219.255-1.084.378-1.692.91-2.153a.718.718,0,0,0-.494-1.321c-.461.07-.17-.571-.581-.607s-.949-.853-1.542-1.135c-.314-.149-.623-.549-1.107-.567-.429-.017-1.057.363-1.057.07a18.192,18.192,0,0,0-.115-1.884c-.016-.216-.141-.073.439-.059.316.008.162-.634.474-.66s1.039.287,1.225.163S10.84,12,10.84,9.61c0-.284-.147-.777,0-1.046a12.592,12.592,0,0,0,1.076-2.053,1.594,1.594,0,0,0-1.048.022c-.153.051.049.291-.171.342-.823.19-1.551-.222-1.3-.609s1.206-.173,1.289-.97c.048-.456.087-.985.114-1.377,1.108.173.986-1.438-.662-1.611a7.714,7.714,0,0,1,7.2,5.18.314.314,0,0,0-.184-.084c-.5-1.244-1.708-.344-1.3.754-2.2,1.69-1.635,2.868-.913,3.543a6.539,6.539,0,0,1,.978,1.271c-.257.749.946.449,1.539-.822A7.723,7.723,0,0,1,11.949,17.483Z" transform="translate(19.95 201.981)"/></g></svg>