<svg xmlns="http://www.w3.org/2000/svg" width="20" height="20" viewBox="0 0 20 20"><defs><style>.a{fill:#fff;opacity:0;}.b{stroke:#000;stroke-width:0.5px;}</style></defs><g transform="translate(-79 -311)"><rect class="a" width="20" height="20" transform="translate(79 311)"/><path class="b" d="M78.849,160a1.1,1.1,0,0,1,1.142,1.047v10.47a1.1,1.1,0,0,1-1.142,1.047H65.142A1.1,1.1,0,0,1,64,171.517v-10.47A1.1,1.1,0,0,1,65.142,160Zm0,4.541L72,168.567l0-.006,0,.006-6.851-4.025v6.881H78.849Zm0-3.4H65.142v2.045L72,167.213l6.853-4.026Z" transform="translate(17.004 154.718)"/></g></svg>