<svg xmlns="http://www.w3.org/2000/svg" width="16" height="16" viewBox="0 0 16 16"><defs><style>.a{fill:#fff;stroke:#707070;opacity:0;}.b{fill:#cdd0e0;}.c{stroke:none;}.d{fill:none;}</style></defs><g transform="translate(-20 -3.004)"><g class="a" transform="translate(20 3.004)"><rect class="c" width="16" height="16"/><rect class="d" x="0.5" y="0.5" width="15" height="15"/></g><path class="b" d="M132.355,5.965h-1.994V3.639a3.361,3.361,0,0,1,.3-1.416,3.667,3.667,0,0,1,.831-1.155,3.9,3.9,0,0,1,1.25-.783A4.243,4.243,0,0,1,134.317,0a3.867,3.867,0,0,1,1.464.285,4.138,4.138,0,0,1,1.25.783,3.877,3.877,0,0,1,.87,1.155,3.154,3.154,0,0,1,.324,1.416V5.965h-1.915V4.082a2.069,2.069,0,0,0-.554-1.543,2.048,2.048,0,0,0-1.5-.546,1.817,1.817,0,0,0-1.377.546,2.143,2.143,0,0,0-.522,1.543V5.965Zm6.82.949a1.054,1.054,0,0,1,1.044,1.044v4.9a2.112,2.112,0,0,1-.15.8,2.062,2.062,0,0,1-.411.649,1.887,1.887,0,0,1-1.4.593h-7.99a1.834,1.834,0,0,1-1.748-1.187,2.045,2.045,0,0,1-.134-.744V7.959a1.018,1.018,0,0,1,.3-.736.979.979,0,0,1,.728-.309h9.763Z" transform="translate(-106.302 3.551)"/></g></svg>