<svg xmlns="http://www.w3.org/2000/svg" width="18" height="18" viewBox="0 0 18 18"><defs><style>.a{fill:#fff;opacity:0;}.b{stroke:#000;stroke-width:0.8px;}</style></defs><g transform="translate(-55 -448)"><rect class="a" width="18" height="18" transform="translate(55 448)"/><path class="b" d="M89.347,155.065l-2.705-2.705a1.131,1.131,0,0,0-.328-.246L82.3,148.1a4.156,4.156,0,0,1,0-5.9l.082-.082a4.156,4.156,0,0,1,5.9,0l1.066.82.9-.9a4.156,4.156,0,0,1,5.9,0l.082.082a4.157,4.157,0,0,1,0,5.9Zm-3.853-12.953a2.846,2.846,0,0,0-2.05.82l-.164.082a2.969,2.969,0,0,0,0,4.181l4.017,4.017c.082.082.164.164.246.164l.082.082,1.8,1.8,2.623-2.623,3.443-3.443a2.969,2.969,0,0,0,0-4.181l-.082-.082a2.969,2.969,0,0,0-4.181,0l-1.886,1.8-1.8-1.8A2.846,2.846,0,0,0,85.494,142.112Z" transform="translate(-25.265 309.068)"/></g></svg>