<svg xmlns="http://www.w3.org/2000/svg" xmlns:xlink="http://www.w3.org/1999/xlink" width="20" height="20" viewBox="0 0 20 20"><defs><style>.a{fill:#eaeaea;opacity:0;}.b{fill:url(#a);}.c{fill:#4d4d4d;opacity:0.1;}.d{fill:url(#b);}</style><linearGradient id="a" x1="0.5" x2="0.5" y2="1" gradientUnits="objectBoundingBox"><stop offset="0" stop-color="#ff626c"/><stop offset="1" stop-color="#c02930"/></linearGradient><linearGradient id="b" x1="0.249" y1="0.669" x2="0.586" y2="1" gradientUnits="objectBoundingBox"><stop offset="0" stop-color="#ffe7c6"/><stop offset="1" stop-color="#ce9333"/></linearGradient></defs><g transform="translate(-0.219 -0.25)"><rect class="a" width="20" height="20" transform="translate(0.219 0.25)"/><g transform="translate(4.219 1.376)"><rect class="b" width="10.293" height="13.94" rx="2"/><path class="c" d="M.694,11.863h3.4V10.3L6.908,5.586a2.1,2.1,0,0,0,0-1.338c-.251-.67-.69-2.553-.69-2.553S5.783,1,5.4,1C4.9,1,3.644,4.331,3.644,4.331L3.466.954A1.207,1.207,0,0,0,3.291.377.7.7,0,0,0,2.7,0c-.362,0-.5.049-.667.322a1.862,1.862,0,0,0-.261.8A25.235,25.235,0,0,1,1.263,4.1a1.145,1.145,0,0,1-.257.462A7.026,7.026,0,0,0,0,6.9c-.063.5.686,4.519.686,4.519" transform="translate(5.044 6.556)"/><path class="d" d="M.694,11.863h3.4V10.3L6.908,5.586a2.1,2.1,0,0,0,0-1.338c-.251-.67-.69-2.553-.69-2.553S5.783,1,5.4,1C4.9,1,3.644,4.331,3.644,4.331L3.466.954A1.207,1.207,0,0,0,3.291.377.7.7,0,0,0,2.7,0c-.362,0-.5.049-.667.322a1.862,1.862,0,0,0-.261.8A25.235,25.235,0,0,1,1.263,4.1a1.145,1.145,0,0,1-.257.462A7.026,7.026,0,0,0,0,6.9c-.063.5.686,4.519.686,4.519" transform="translate(5.044 6.556)"/></g></g></svg>