<svg xmlns="http://www.w3.org/2000/svg" width="8.815" height="9.52" viewBox="0 0 8.815 9.52"><defs><style>.a{fill:#fff;}</style></defs><path class="a" d="M1073.689,115.471a2.21,2.21,0,0,1-1.487,2.244,3.587,3.587,0,0,0,.169-2.582,5.164,5.164,0,0,0-2.363-2.4.411.411,0,0,0-.619.354,3.092,3.092,0,0,1-1.016,2.27,4.987,4.987,0,0,0-1.708,3.478,3.238,3.238,0,0,0,3.111,3.362c-2.1-2.1-.518-3.88-.518-3.88.439,3.066,2.586,3.88,3.63,3.88.887,0,2.593-.648,2.593-3.343a5.936,5.936,0,0,0-1.237-3.577.311.311,0,0,0-.556.194" transform="translate(-1066.667 -112.678)"/></svg>