<svg xmlns="http://www.w3.org/2000/svg" width="20" height="20" viewBox="0 0 20 20"><defs><style>.a{fill:#fff;opacity:0;}.b{fill:#16c15e;}.c{fill:#f25660;}</style></defs><g transform="translate(-173.579 -627.47)"><rect class="a" width="20" height="20" transform="translate(173.579 627.47)"/><path class="b" d="M0,7.089A6.448,6.448,0,0,1,.682,4.2,7.969,7.969,0,0,1,7.873,0a8.07,8.07,0,0,1,6.9,3.67l.974-.4-.49,4.052L12.094,4.759l.647-.263A5.822,5.822,0,0,0,7.873,2,5.725,5.725,0,0,0,2.707,5.014a4.629,4.629,0,0,0-.489,2.075,1.058,1.058,0,0,1-1.109,1A1.058,1.058,0,0,1,0,7.089Z" transform="translate(176.181 629.607)"/><path class="c" d="M0,7.089A6.448,6.448,0,0,1,.682,4.2,7.969,7.969,0,0,1,7.873,0a8.07,8.07,0,0,1,6.9,3.67l.974-.4-.49,4.052L12.094,4.759l.647-.263A5.822,5.822,0,0,0,7.873,2,5.725,5.725,0,0,0,2.707,5.014a4.629,4.629,0,0,0-.489,2.075,1.058,1.058,0,0,1-1.109,1A1.058,1.058,0,0,1,0,7.089Z" transform="translate(191.926 646.281) rotate(180)"/></g></svg>