<svg xmlns="http://www.w3.org/2000/svg" xmlns:xlink="http://www.w3.org/1999/xlink" width="20" height="20" viewBox="0 0 20 20"><defs><style>.a{fill:#eaeaea;opacity:0;}.b{fill:#4d4d4d;opacity:0.1;}.c{fill:url(#a);}.d{fill:url(#b);}</style><linearGradient id="a" x1="0.5" x2="0.5" y2="1" gradientUnits="objectBoundingBox"><stop offset="0" stop-color="#ffbe2c"/><stop offset="1" stop-color="#fc8c3a"/></linearGradient><linearGradient id="b" x1="0.249" y1="0.669" x2="0.586" y2="1" gradientUnits="objectBoundingBox"><stop offset="0" stop-color="#ffe7c6"/><stop offset="1" stop-color="#ce9333"/></linearGradient></defs><g transform="translate(-0.344 -0.356)"><rect class="a" width="20" height="20" transform="translate(0.344 0.356)"/><path class="b" d="M.705,12.065H4.159V10.477l2.866-4.8a2.14,2.14,0,0,0,0-1.361c-.255-.682-.7-2.6-.7-2.6s-.442-.7-.83-.7C4.983,1.021,3.706,4.4,3.706,4.4L3.525.97A1.227,1.227,0,0,0,3.347.383.715.715,0,0,0,2.748,0c-.368,0-.506.05-.678.328a1.894,1.894,0,0,0-.265.811,25.664,25.664,0,0,1-.521,3.033,1.165,1.165,0,0,1-.261.47A7.146,7.146,0,0,0,0,7.022c-.064.511.7,4.6.7,4.6" transform="translate(9.134 8.063)"/><g transform="translate(0.55)"><rect class="c" width="10.679" height="14.388" rx="2" transform="translate(3.794 1.396)"/><path class="d" d="M.705,12.065H4.159V10.477l2.866-4.8a2.14,2.14,0,0,0,0-1.361c-.255-.682-.7-2.6-.7-2.6s-.442-.7-.83-.7C4.983,1.021,3.706,4.4,3.706,4.4L3.525.97A1.227,1.227,0,0,0,3.347.383.715.715,0,0,0,2.748,0c-.368,0-.506.05-.678.328a1.894,1.894,0,0,0-.265.811,25.664,25.664,0,0,1-.521,3.033,1.165,1.165,0,0,1-.261.47A7.146,7.146,0,0,0,0,7.022c-.064.511.7,4.6.7,4.6" transform="translate(9.134 8.063)"/></g></g></svg>