<svg xmlns="http://www.w3.org/2000/svg" xmlns:xlink="http://www.w3.org/1999/xlink" width="20" height="20" viewBox="0 0 20 20"><defs><style>.a{fill:none;}.b{fill:#eaeaea;opacity:0;}.c{fill:#e36a70;}.d{fill:#4fc37f;}.e{clip-path:url(#a);}.f{fill:#ccc;}</style><clipPath id="a"><rect class="a" width="14.295" height="18.079"/></clipPath></defs><g transform="translate(-0.638 -0.435)"><rect class="b" width="20" height="20" transform="translate(0.638 0.435)"/><path class="c" d="M48.99,8.261,59.17,4.129,48.989,0Z" transform="translate(-42.328 1.125)"/><path class="d" d="M0,128.3H1.619L3.7,123.162H14.318v-1.335H4.636L3.088,121.8Z" transform="translate(3.142 -109.096)"/><g transform="translate(3.142 1.125)"><g class="e"><path class="d" d="M42.518,146.176a2.737,2.737,0,0,1-.751-.105l.6-1.655h2.924a3.035,3.035,0,0,1-2.769,1.76" transform="translate(-37.795 -130.683)"/><path class="d" d="M33.308,147.628a4.44,4.44,0,0,0,4.286-3.212H42.88v4.345H31.589l.474-1.321a4.191,4.191,0,0,0,1.245.188" transform="translate(-28.585 -130.683)"/></g></g><rect class="f" width="0.951" height="12.404" rx="0.475" transform="translate(6.185 1.136)"/></g></svg>