<svg xmlns="http://www.w3.org/2000/svg" width="20" height="20" viewBox="0 0 20 20"><defs><style>.a{fill:#eaeaea;opacity:0;}.b{fill:#fff;}.c{fill:#222;}</style></defs><g transform="translate(0.313 0.235)"><rect class="a" width="20" height="20" transform="translate(-0.313 -0.235)"/><g transform="translate(1.687 1.765)"><circle class="b" cx="7.5" cy="7.5" r="7.5" transform="translate(0.5 0.5)"/><path class="c" d="M72.2,184.9a8,8,0,1,0,8,8A8.009,8.009,0,0,0,72.2,184.9Zm7.306,6.034-.621-.335a7.505,7.505,0,0,0-1.754-3.434A7.588,7.588,0,0,1,79.506,190.934Zm-3.621,5.922-2.625-.707-.514-2.311,1.915-2.143,2.694.822.45,2.729-1.92,1.61Zm-5.311,1.508L67.451,196.7,67.5,194.1l2.135-1.371,2.681,1.192.509,2.285Zm-5.132-6.015a7.334,7.334,0,0,1,1.272-4.1l1.5-.337,1.505,1.446-.327,3.024-2.035,1.31ZM77.5,192.1l-2.611-.8-1.569-2.753.959-1.8,1.971.1a7.824,7.824,0,0,1,2.21,3.817Zm-4.524-6.73.911,1.192-.972,1.824L70,189.027l-1.425-1.369L69,186.044a7.515,7.515,0,0,1,3.2-.71A7.4,7.4,0,0,1,72.974,185.374Zm-6.9,3.093a7.2,7.2,0,0,0-1.045,4.151l-.38.718c-.008-.145-.013-.289-.013-.437A7.519,7.519,0,0,1,66.072,188.467Zm-.043,8.806.959-.332,3.742,2,.013-.024,1.12,1.055-.182.477a7.565,7.565,0,0,1-5.651-3.174Zm6.112,3.19.163-.429a22.3,22.3,0,0,0,3.067-.809l.391.343a7.512,7.512,0,0,1-3.562.892A.217.217,0,0,1,72.141,200.463Zm4.017-1.119-.447-.394.3-1.631,2.073-1.738,1.055.329A7.619,7.619,0,0,1,76.158,199.344Z" transform="translate(-64.2 -184.9)"/></g></g></svg>