<svg xmlns="http://www.w3.org/2000/svg" width="18" height="18" viewBox="0 0 18 18"><defs><style>.a{fill:#fff;opacity:0;}</style></defs><g transform="translate(-68.4 -96.572)"><rect class="a" width="18" height="18" transform="translate(68.4 96.572)"/><path d="M112.4,195.048a1.439,1.439,0,0,1,1.439,1.439v9.595a1.439,1.439,0,0,1-1.439,1.439H98.963a1.439,1.439,0,0,1-1.439-1.439v-9.595a1.439,1.439,0,0,1,1.439-1.439Zm0,1.439H98.963v9.595H112.4Zm-8.148,1.661a.96.96,0,0,1,.476.126l3.823,2.185a.959.959,0,0,1,0,1.666l-3.824,2.184a.959.959,0,0,1-1.435-.833v-4.369A.96.96,0,0,1,104.248,198.148Zm.48,1.786v2.716l2.376-1.358-2.376-1.358Z" transform="translate(-28.279 -95.712)"/></g></svg>