<svg xmlns="http://www.w3.org/2000/svg" width="18" height="18" viewBox="0 0 18 18"><defs><style>.a{fill:#fff;opacity:0;}.b{stroke:#000;stroke-width:0.5px;}</style></defs><g transform="translate(-14 -847)"><rect class="a" width="18" height="18" transform="translate(14 847)"/><path class="b" d="M92.758,98.553v0c1.494-2.713,1.682-4.93.506-6.105s-3.4-.988-6.113.51a7.184,7.184,0,0,0-1.4-.138,7.135,7.135,0,0,0-7.14,7.14,7.184,7.184,0,0,0,.138,1.4c-1.5,2.717-1.686,4.936-.51,6.113a2.834,2.834,0,0,0,2.081.765,8.745,8.745,0,0,0,4.024-1.272h0l.007,0a7.182,7.182,0,0,0,1.4.137,7.135,7.135,0,0,0,7.14-7.14,7.182,7.182,0,0,0-.137-1.4Zm-.466-5.137c.548.548.466,1.781-.173,3.309l-.009-.018-.04-.076-.022-.041L92,96.5l-.014-.025q-.032-.058-.066-.115l-.015-.025-.053-.089-.024-.039-.046-.074-.027-.042-.046-.07-.028-.043-.047-.069-.028-.041-.052-.073-.025-.035-.069-.093-.01-.013-.081-.106-.023-.029-.06-.075-.031-.037-.054-.065-.034-.04-.054-.062-.091-.1-.034-.037-.062-.066L90.893,95l-.094-.1-.1-.094-.032-.03-.066-.062-.038-.035-.061-.056-.04-.036-.061-.053-.04-.035-.064-.054-.038-.032-.073-.059-.03-.024-.105-.081-.016-.012-.091-.067-.037-.026-.072-.051-.042-.029-.068-.047L89.687,94l-.069-.045-.043-.027-.073-.046-.039-.024-.088-.053-.025-.015-.115-.066-.024-.013-.092-.05-.04-.021L89,93.6l-.017-.009C90.512,92.949,91.745,92.868,92.292,93.415Zm-6.541.775a5.792,5.792,0,0,1,1.349.159l.1.024.032.009.063.017.038.011.057.016.04.012.054.016.041.013.052.017.042.014.051.017.042.015.05.018.042.016.049.019.042.017.049.02.042.017.048.021.041.018.048.021.041.019.047.022.04.019.047.023.04.02.047.024.039.02.047.025.038.021.047.026.037.021.047.027.037.021.048.029.035.021.048.03.033.021.05.032.031.02.054.036.026.018.064.045.015.011q.079.056.156.115l.017.014.059.046.024.019.051.041.027.022.047.039.029.024.045.038.029.026.043.038.029.027.042.038.029.028.041.039.029.028.04.039.029.029.039.04.028.029.038.04.028.03.038.041.027.03.037.042.027.031.036.042.026.031.036.043.026.031.036.044.025.031.035.046.024.031.035.047.022.03.036.049.021.029.037.052.019.027.039.058.015.022.047.073.005.008q.052.082.1.166l.012.021.036.063.016.028.031.056.017.032.028.053.018.035.026.051.018.037.025.05.018.038.023.05.018.039.022.049.017.04.021.049.017.041.02.049.016.042.019.049.016.042.018.049.015.043.017.049.015.043.016.049.014.044.015.049.013.045,0,.015-.007.013-.034.056-.044.073-.036.058-.045.072-.037.059-.045.071L91,98.81l-.046.071-.039.06-.047.071-.04.06-.048.071-.04.059-.049.071-.041.059-.05.072-.041.059-.052.073-.041.058-.054.075-.04.056-.057.078-.039.052-.063.085-.034.046-.081.106-.018.024-.1.13-.027.035-.075.095-.039.048-.065.081-.043.053-.062.076-.046.055-.061.074-.048.057-.06.072-.049.058-.06.071-.05.058-.061.07-.051.058-.061.07-.052.058-.062.069-.052.058-.063.069-.053.058-.064.069-.053.057-.065.07-.052.056-.068.071-.051.054-.071.074-.049.05-.08.082-.041.042q-.122.124-.246.246l-.042.041-.082.08-.05.048-.075.072-.054.051-.071.068-.056.052-.07.066-.057.053-.127.117-.068.062-.059.053-.068.061-.06.053-.067.059-.061.053-.067.058-.061.053-.068.058-.061.052-.068.058-.06.05-.069.057-.06.05-.069.057-.06.049-.071.057-.058.047-.077.061-.053.041-.128.1-.048.036-.082.063-.058.043-.072.054-.06.045-.07.051-.062.045-.068.05-.062.044-.131.092-.068.047-.063.044-.067.046-.063.043-.068.046-.062.042-.068.045-.062.041-.068.044-.061.039-.069.044-.06.038-.07.044-.059.037-.072.044-.057.035-.013.007-.015,0-.045-.014-.049-.015-.045-.014-.049-.016-.044-.015-.049-.017-.044-.016-.048-.018-.043-.016-.048-.019-.042-.017-.048-.02-.042-.017-.048-.021-.041-.018-.048-.022-.04-.018-.049-.023-.039-.018-.049-.024-.038-.019-.05-.026-.036-.019-.051-.027-.034-.018-.053-.03-.031-.017-.059-.034-.025-.014-.08-.048,0,0-.083-.052-.015-.009-.067-.043-.026-.017-.054-.037-.03-.021-.049-.034-.032-.023-.047-.034-.032-.024-.045-.034-.033-.025L82.2,104.5l-.033-.026-.042-.034-.033-.027-.041-.034-.033-.028-.04-.035-.033-.029-.072-.065-.038-.036-.032-.03-.038-.036-.032-.031-.037-.036-.031-.031-.036-.037-.031-.032-.036-.038-.031-.032-.035-.038-.03-.033-.035-.039-.029-.033-.034-.04-.029-.034-.034-.04-.028-.034-.034-.042-.027-.033-.034-.044-.025-.032-.04-.053-.026-.035-.048-.066-.024-.035-.031-.044-.026-.038-.028-.042-.026-.04-.027-.041L80.858,103l-.026-.041-.025-.042-.025-.041-.025-.042-.024-.041-.024-.043-.023-.041-.024-.044-.022-.042-.023-.044-.021-.042-.022-.045-.021-.042-.022-.045-.02-.043-.021-.045-.019-.043-.02-.046-.018-.043-.019-.046L80.4,102.1l-.018-.047-.017-.044-.018-.047-.016-.045q-.017-.046-.033-.092l-.016-.047-.015-.047-.015-.046-.015-.048-.014-.045-.015-.051-.012-.044-.015-.056-.01-.039c-.007-.028-.014-.056-.021-.084l0-.011a5.773,5.773,0,0,1,5.608-7.117ZM79.21,106.5c-.548-.548-.466-1.781.173-3.309l.009.017.04.076.022.041.049.089.015.027.066.115.017.028.051.085.025.041.045.071.028.044.044.067.03.045.045.067.03.043.049.07.027.038.064.087.015.019.081.1.026.032.058.072.032.039.053.063.035.041.053.06.036.041.055.061.035.038.061.065.03.032.093.1.1.093.032.03.065.061.038.035.061.055.04.036.061.053.04.035.064.054.038.032.074.059.03.024.105.081.016.012.091.067.036.026.072.051.11.075.043.029.069.045.043.028.073.046.04.025.087.052.027.016.115.066.028.016.088.048.043.023.074.039.018.009C80.99,106.964,79.757,107.046,79.21,106.5Zm7.112-.8.028-.02.129-.1.053-.039.114-.086.053-.04.126-.1.037-.029.163-.128.032-.026.13-.1.053-.043.111-.091.055-.045.119-.1.043-.036.161-.137.025-.022.134-.117.051-.045.11-.1.055-.049.114-.1.046-.042.158-.145.015-.014.142-.133.05-.047.108-.1.163-.158.048-.047.154-.152.152-.153.047-.048.1-.108.053-.055.1-.107.048-.051.131-.14.015-.016.145-.157.042-.046.1-.113.049-.055.1-.11.162-.186.022-.026.137-.16.037-.043.1-.118.046-.055.091-.111.044-.054.1-.128.027-.034.128-.162.031-.04.094-.122.042-.056.084-.111.042-.056.09-.122.024-.033A5.777,5.777,0,0,1,86.321,105.7Z" transform="translate(-62.75 756.042)"/></g></svg>