<svg xmlns="http://www.w3.org/2000/svg" width="32" height="32" viewBox="0 0 32 32"><defs><style>.a{fill:#2e6bc4;}.b{fill:#fff;}</style></defs><g transform="translate(5.619 1.326)"><rect class="a" width="32" height="32" rx="16" transform="translate(-5.619 -1.326)"/><path class="b" d="M11.251,14H3.75A3.635,3.635,0,0,1,0,10.5v-7A3.639,3.639,0,0,1,3.75,0h7.5A3.638,3.638,0,0,1,15,3.5l2.4-1.685a2.337,2.337,0,0,1,1.339-.424,2.378,2.378,0,0,1,1.566.588A2.008,2.008,0,0,1,21,3.5v7a2,2,0,0,1-.694,1.518,2.387,2.387,0,0,1-1.566.588,2.332,2.332,0,0,1-1.339-.424L15,10.5A3.634,3.634,0,0,1,11.251,14ZM6,3.362a1.454,1.454,0,0,0-1.5,1.4V9.239a1.457,1.457,0,0,0,1.5,1.4,1.524,1.524,0,0,0,.792-.217l3.836-2.237a1.354,1.354,0,0,0,0-2.375L6.792,3.573A1.593,1.593,0,0,0,6,3.362Z" transform="translate(0.381 7.674)"/></g></svg>