<svg xmlns="http://www.w3.org/2000/svg" width="22" height="22" viewBox="0 0 22 22"><defs><style>.a{opacity:0;}.b{stroke:#000;stroke-width:0.3px;}</style></defs><g transform="translate(-0.461 -0.281)"><rect class="a" width="22" height="22" transform="translate(0.461 0.281)"/><path class="b" d="M150.652,18.388a5.234,5.234,0,0,1,3.555,1.365,4.5,4.5,0,0,1,1.473,3.3v5.532a1.942,1.942,0,0,0,.419,1.2l.793,1.036h-12.48l.793-1.036a1.942,1.942,0,0,0,.419-1.2V23.049a4.5,4.5,0,0,1,1.473-3.3A5.234,5.234,0,0,1,150.652,18.388Zm0-1.554a6.473,6.473,0,0,0-6.7,6.216v5.531a.493.493,0,0,1-.106.3l-1.425,1.854a.973.973,0,0,0-.083,1.076,1.132,1.132,0,0,0,.993.561h14.648a1.132,1.132,0,0,0,.993-.561.973.973,0,0,0-.083-1.076l-1.425-1.854a.493.493,0,0,1-.106-.3V23.049a6.474,6.474,0,0,0-6.7-6.214Zm.558-.518h-1.117a.779.779,0,1,1,0-1.554h1.117a.779.779,0,1,1,0,1.554Zm1.4,18.645h-3.351a.779.779,0,1,1,0-1.554h3.352a.779.779,0,1,1,0,1.554Z" transform="translate(-139.192 -13.579)"/></g></svg>