<svg xmlns="http://www.w3.org/2000/svg" width="18" height="18" viewBox="0 0 18 18"><defs><style>.a{fill:#fff;opacity:0;}.b{fill:#333;}</style></defs><g transform="translate(-68.4 -96.572)"><rect class="a" width="18" height="18" transform="translate(68.4 96.572)"/><path class="b" d="M82.7,272.967H70.1a2.7,2.7,0,0,1-2.7-2.7V262.2a2.7,2.7,0,0,1,2.7-2.7H82.7a2.7,2.7,0,0,1,2.7,2.7v8.063A2.707,2.707,0,0,1,82.7,272.967ZM70.1,261.3a.9.9,0,0,0-.9.9v8.063a.9.9,0,0,0,.9.9H82.7a.9.9,0,0,0,.9-.9V262.2a.9.9,0,0,0-.9-.9Z" transform="translate(1.002 -159.031)"/><path class="b" d="M257.263,103.2a.911.911,0,0,1-.475-.135.9.9,0,0,1-.291-1.24L258.5,98.6a.9.9,0,0,1,1.531.949l-2.005,3.229A.9.9,0,0,1,257.263,103.2Zm-4.959,0a.9.9,0,0,1-.765-.426l-2.005-3.229a.9.9,0,1,1,1.531-.949l2.005,3.229a.9.9,0,0,1-.765,1.375Zm1.68,7.29a.9.9,0,0,1-.9-.9v-2.857a.9.9,0,0,1,1.375-.763l2.29,1.428a.9.9,0,0,1,0,1.527l-2.29,1.428A.884.884,0,0,1,253.983,110.494Z" transform="translate(-177.32 -0.963)"/></g></svg>