<svg xmlns="http://www.w3.org/2000/svg" width="32" height="32" viewBox="0 0 32 32"><defs><style>.a{fill:none;}.b{fill:gray;}</style></defs><g transform="translate(5.619 1.705)"><rect class="a" width="32" height="32" rx="14" transform="translate(-5.619 -1.705)"/><g transform="translate(-3.835 4.49)"><path class="b" d="M34.133,175.569a4.952,4.952,0,0,1,5-4.9h10a4.952,4.952,0,0,1,5,4.9l3.2-2.353a3.005,3.005,0,0,1,4.8,2.353v9.8a3.005,3.005,0,0,1-4.8,2.353l-3.2-2.353a4.952,4.952,0,0,1-5,4.9h-10a4.952,4.952,0,0,1-5-4.9Zm20,7.353,4.4,3.235a1.017,1.017,0,0,0,1.047.093.979.979,0,0,0,.553-.877v-9.8a.979.979,0,0,0-.553-.877,1.017,1.017,0,0,0-1.047.093l-4.4,3.236Zm-2-7.353a2.971,2.971,0,0,0-3-2.941h-10a2.971,2.971,0,0,0-3,2.941v9.8a2.971,2.971,0,0,0,3,2.941h10a2.971,2.971,0,0,0,3-2.941v-9.8Zm-12,1.769a2,2,0,0,1,3.061-1.663l5.114,3.133a1.941,1.941,0,0,1,0,3.326L43.2,185.267a2,2,0,0,1-3.061-1.663Zm7.115,3.133-5.114-3.133V183.6Z" transform="translate(-34.133 -170.667)"/></g></g></svg>