<svg xmlns="http://www.w3.org/2000/svg" width="18.001" height="18" viewBox="0 0 18.001 18"><defs><style>.a{fill:#fff;opacity:0;}</style></defs><g transform="translate(-14 -847)"><rect class="a" width="18" height="18" transform="translate(14 847)"/><path d="M9.338,7.172a.374.374,0,0,0-.5-.189.369.369,0,0,0-.18.189L7.989,8.639l-1.538.216a.4.4,0,0,0-.207.675l1.124,1.116-.288,1.6a.4.4,0,0,0,.3.459.363.363,0,0,0,.252-.045L9,11.888l1.367.774a.371.371,0,0,0,.513-.162.376.376,0,0,0,.036-.261l-.279-1.6,1.124-1.116a.405.405,0,0,0,.009-.558.366.366,0,0,0-.225-.117L10,8.63,9.338,7.172ZM17.092.512H.9a.9.9,0,0,0-.9.9v2.52a.9.9,0,0,0,.9.9H2.16v8.694a1.929,1.929,0,0,0,.909,1.647l4.966,3.069a1.851,1.851,0,0,0,1.925,0l4.975-3.069a1.95,1.95,0,0,0,.909-1.647V4.832H17.1a.9.9,0,0,0,.9-.9V1.412a.916.916,0,0,0-.909-.9Zm-2.7,5.58v7.434a.468.468,0,0,1-.225.414L9.2,17.018A.428.428,0,0,1,9,17.081a.35.35,0,0,1-.207-.063L3.815,13.949a.488.488,0,0,1-.225-.414v-8.7H14.385V6.047a.1.1,0,0,1,.009.045Zm2.159-2.7H1.44V1.952H16.552Z" transform="translate(14 846.488)"/></g></svg>