<svg xmlns="http://www.w3.org/2000/svg" width="70" height="70" viewBox="0 0 70 70"><defs><style>.a{fill:#fff;}.a,.f{opacity:0.6;}.b,.c,.d,.e,.f,.g{fill:gray;}.b{opacity:0.4;}.c{opacity:0.5;}.d{opacity:0.3;}.e{opacity:0.7;}.g{opacity:0.8;}</style></defs><g transform="translate(0.033 0.06)"><circle class="a" cx="35" cy="35" r="35" transform="translate(-0.033 -0.06)"/><g transform="translate(0.013 1.282)"><path class="b" d="M6.69,0,0,9.024,1.689,22.05l7.8,1.038L12.538,9.024Z" transform="matrix(0.995, 0.105, -0.105, 0.995, 2.413, 19.585)"/><path class="c" d="M3122.141-4528.275s11.563-1.827,12.8-2.867c1.821,1.613,8.257,7.44,9.9,7.813-2.955,3.085-6.689,6.394-6.689,6.394s-8.97-.55-13.332-1.927c-.141-.044-.346-.114-.536-.187A43.7,43.7,0,0,1,3122.141-4528.275Z" transform="translate(-3101.507 4585.085)"/><path class="d" d="M0,7.867S11.118,4.632,12.586,4.62C14.527,3.6,17.084.7,19.323.247S9.006-.736,0,5.671A12.658,12.658,0,0,1,0,7.867Z" transform="matrix(0.996, -0.087, 0.087, 0.996, 13.71, 1.707)"/><path class="e" d="M3228.841-4689.55s3.354,2.1,7.7,7.689c-1.663-4.306-7.932-12.3-14.08-15.092A32.122,32.122,0,0,1,3228.841-4689.55Z" transform="translate(-3171.088 4701.725)"/><path class="f" d="M3.715,5.712,9.677,0s1.652,10.056-5.962,20.479A18.54,18.54,0,0,1,0,18.614a11.945,11.945,0,0,0,1.981-4.33A77.232,77.232,0,0,0,3.715,5.712Z" transform="matrix(1, 0.017, -0.017, 1, 59.032, 33.379)"/><path class="g" d="M13.416,2.714a2,2,0,0,1,3.392,0l11.5,18.4a2,2,0,0,1-1.7,3.06H3.608a2,2,0,0,1-1.7-3.06Z" transform="translate(53.564 14.033) rotate(90)"/></g></g></svg>