<svg xmlns="http://www.w3.org/2000/svg" width="32" height="32" viewBox="0 0 32 32"><defs><style>.a{fill:#2e6bc4;}.b{fill:#fff;}</style></defs><g transform="translate(5.619 5.283)"><rect class="a" width="32" height="32" rx="16" transform="translate(-5.619 -5.283)"/><g transform="translate(2.953 -1.805)"><path class="b" d="M9.546,15H3a3,3,0,0,1-3-3V11H1.5a1,1,0,0,0,1-1V5a1,1,0,0,0-1-1H0V3A3,3,0,0,1,3,0H9.546V4.031a3.5,3.5,0,0,0,0,6.941V15ZM17,15H10.546V10.959a3.5,3.5,0,0,0,0-6.916V0H17a3,3,0,0,1,3,3V4H18.5a1,1,0,0,0-1,1v5a1,1,0,0,0,1,1H20v1A3,3,0,0,1,17,15Z" transform="translate(-2.574 5.02)"/><path class="b" d="M3,4.982H3V.015A2.541,2.541,0,0,1,3,4.982Zm-1,0h0A2.541,2.541,0,0,1,2,.017V4.979Z" transform="translate(4.93 10.024)"/><path class="b" d="M0,0H1a.5.5,0,0,1,.5.5v4A.5.5,0,0,1,1,5H0A0,0,0,0,1,0,5V0A0,0,0,0,1,0,0Z" transform="translate(-2.574 10.021)"/><path class="b" d="M.5,0h1a0,0,0,0,1,0,0V5a0,0,0,0,1,0,0H.5A.5.5,0,0,1,0,4.5V.5A.5.5,0,0,1,.5,0Z" transform="translate(15.93 10.021)"/></g></g></svg>