<svg xmlns="http://www.w3.org/2000/svg" width="32" height="32" viewBox="0 0 32 32"><defs><style>.a,.b,.d{fill:none;}.b,.d{stroke:gray;}.b{stroke-width:2px;}.c{fill:gray;}.d{stroke-width:1.5px;}.e{stroke:none;}</style></defs><g transform="translate(5.62 1.283)"><rect class="a" width="32" height="32" rx="16" transform="translate(-5.62 -1.283)"/><g transform="translate(-3.002 4.602)"><g class="b" transform="translate(0 0.003)"><rect class="e" width="26.762" height="20.069" rx="3"/><rect class="a" x="1" y="1" width="24.762" height="18.069" rx="2"/></g><path class="c" d="M4.684,9.366A4.683,4.683,0,1,1,9.366,4.684,4.688,4.688,0,0,1,4.684,9.366Zm0-7.934a3.25,3.25,0,1,0,3.251,3.25A3.254,3.254,0,0,0,4.683,1.433Z" transform="translate(8.698 5.352)"/><rect class="c" width="2" height="20.069" transform="translate(12.381)"/><g class="d" transform="translate(0.001 5.354)"><path class="e" d="M0,0H3.683a1,1,0,0,1,1,1V8.366a1,1,0,0,1-1,1H0a0,0,0,0,1,0,0V0A0,0,0,0,1,0,0Z"/><path class="a" d="M.75.75H3.683a.25.25,0,0,1,.25.25V8.366a.25.25,0,0,1-.25.25H.75a0,0,0,0,1,0,0V.75A0,0,0,0,1,.75.75Z"/></g><g class="d" transform="translate(22.08 5.354)"><path class="e" d="M1,0H4.683a0,0,0,0,1,0,0V9.366a0,0,0,0,1,0,0H1a1,1,0,0,1-1-1V1A1,1,0,0,1,1,0Z"/><path class="a" d="M1,.75H3.933a0,0,0,0,1,0,0V8.616a0,0,0,0,1,0,0H1a.25.25,0,0,1-.25-.25V1A.25.25,0,0,1,1,.75Z"/></g></g></g></svg>