<svg xmlns="http://www.w3.org/2000/svg" width="18" height="18" viewBox="0 0 18 18"><defs><style>.a{fill:#fff;opacity:0;}</style></defs><g transform="translate(-14 -847)"><rect class="a" width="18" height="18" transform="translate(14 847)"/><g transform="translate(14 721.247)"><path d="M582.494,256h-1.125v1.125h.563a.563.563,0,0,1,.563.563v7.878a.552.552,0,0,1-.563.563h-6.187a1.125,1.125,0,0,0,1.125,1.125h5.624a1.125,1.125,0,0,0,1.125-1.125v-9A1.125,1.125,0,0,0,582.494,256Z" transform="translate(-565.619 -125.749)"/><path d="M13.5,128H1.125A1.125,1.125,0,0,0,0,129.125V140.38a1.125,1.125,0,0,0,1.125,1.125H13.5a1.125,1.125,0,0,0,1.125-1.125V129.125A1.125,1.125,0,0,0,13.5,128Zm0,11.806a.574.574,0,0,1-.563.574H1.688a.574.574,0,0,1-.563-.574V129.677a.574.574,0,0,1,.563-.551H12.938a.574.574,0,0,1,.563.574v10.107Z" transform="translate(0)"/><path d="M132.436,288h-4.5v3.376h4.5V288Zm-1.125,2.251h-2.248v-1.125h2.25v1.125Zm-3.374,4.5h9v1.125h-9v-1.125ZM133.561,288h3.374v1.125h-3.374Zm0,2.251h3.374v1.125h-3.374Zm-5.625,2.251h9v1.125h-9V292.5Z" transform="translate(-125.686 -157.186)"/></g></g></svg>