<svg xmlns="http://www.w3.org/2000/svg" width="50" height="50" viewBox="0 0 50 50"><defs><style>.a{fill:#fff;stroke:#707070;opacity:0;}.b,.c{fill:#2e6bc4;}.c{opacity:0.3;}.d{stroke:none;}.e{fill:none;}</style></defs><g transform="translate(-165.537 -83.687)"><g class="a" transform="translate(165.537 83.687)"><rect class="d" width="50" height="50"/><rect class="e" x="0.5" y="0.5" width="49" height="49"/></g><g transform="translate(173.923 85.938)"><path class="b" d="M429.463,320h.136a.8.8,0,0,1,.8.72l.728,7.284,5.2,2.971a.8.8,0,0,1,.4.695v.336a.612.612,0,0,1-.772.589l-7.4-2.017a.8.8,0,0,1-.586-.832l.692-9.007A.8.8,0,0,1,429.463,320Z" transform="translate(-413.513 -309.978)"/><path class="c" d="M52.9,55.455a16.819,16.819,0,0,1,23.39,15.473c0,9.284-12.3,27.46-16.81,27.46s-16.81-18.176-16.81-27.46a16.8,16.8,0,0,1,.624-4.55l3.082.865a13.587,13.587,0,1,0,8.7-9.2l1.905,2.273a.8.8,0,0,1-.567,1.313l-7.792.442a.8.8,0,0,1-.824-.985L49.6,53.516a.8.8,0,0,1,1.391-.33Z" transform="translate(-42.667 -52.901)"/></g></g></svg>