<svg xmlns="http://www.w3.org/2000/svg" xmlns:xlink="http://www.w3.org/1999/xlink" width="120" height="103" viewBox="0 0 120 103"><defs><style>.a{fill:url(#a);}.b{fill:url(#b);}.c{fill:url(#c);}.d{fill:url(#d);}.e{fill:url(#e);}.f{fill:url(#f);}.g,.h{stroke:#fff;}.g{fill:url(#g);}.h{fill:url(#h);}.i{fill:url(#i);}.j{fill:url(#j);}.k{fill:url(#k);}.l,.m{stroke:none;}.m{fill:#fff;}</style><radialGradient id="a" cx="0.5" cy="0.5" r="0.5" gradientUnits="objectBoundingBox"><stop offset="0" stop-color="#fff" stop-opacity="0"/><stop offset="1" stop-color="#2e6bc4" stop-opacity="0.102"/></radialGradient><linearGradient id="b" x1="0.5" x2="0.5" y2="1" gradientUnits="objectBoundingBox"><stop offset="0" stop-color="#79a6e6"/><stop offset="1" stop-color="#2e6bc4"/></linearGradient><linearGradient id="c" x1="0.5" x2="0.5" y2="1" gradientUnits="objectBoundingBox"><stop offset="0" stop-color="#f9fbfc"/><stop offset="1" stop-color="#2a5da8"/></linearGradient><linearGradient id="d" x1="0.5" x2="0.5" y2="1" gradientUnits="objectBoundingBox"><stop offset="0" stop-color="#f4f8fb"/><stop offset="1" stop-color="#4078c9"/></linearGradient><linearGradient id="e" x1="0.5" x2="0.5" y2="1" gradientUnits="objectBoundingBox"><stop offset="0" stop-color="#accbe3"/><stop offset="1" stop-color="#4078c9"/></linearGradient><linearGradient id="f" x1="0.5" x2="0.5" y2="1" gradientUnits="objectBoundingBox"><stop offset="0" stop-color="#fff"/><stop offset="1" stop-color="#96b8ea"/></linearGradient><linearGradient id="g" x1="0.231" x2="0.727" y2="1" gradientUnits="objectBoundingBox"><stop offset="0" stop-color="#fff"/><stop offset="1" stop-color="#a7c1e6"/></linearGradient><linearGradient id="h" x1="0.786" x2="0.231" y2="1" gradientUnits="objectBoundingBox"><stop offset="0" stop-color="#fff"/><stop offset="1" stop-color="#c6d9f5"/></linearGradient><linearGradient id="i" x1="0.672" x2="0.176" y2="1" gradientUnits="objectBoundingBox"><stop offset="0" stop-color="#336fc5"/><stop offset="1" stop-color="#c3d5f2"/></linearGradient><linearGradient id="j" x1="0.896" y1="0.246" x2="0.162" y2="0.93" gradientUnits="objectBoundingBox"><stop offset="0" stop-color="#3671c6"/><stop offset="1" stop-color="#cadcf4"/></linearGradient><linearGradient id="k" x1="0.816" y1="0.373" x2="-0.01" y2="0.962" gradientUnits="objectBoundingBox"><stop offset="0" stop-color="#306dc5"/><stop offset="1" stop-color="#c8daf5"/></linearGradient></defs><g transform="translate(3632.521 -9682.896)"><ellipse class="a" cx="60" cy="30.077" rx="60" ry="30.077" transform="translate(-3632.521 9725.741)"/><path class="b" d="M-3594.091,9774.234l36.116,17.791,35.938-17.242-35.938-17.852Z" transform="translate(-14.126 -31.071)"/><g class="c" transform="translate(50.412 15.735)"><path class="l" d="M -3658.218994140625 9737.71875 L -3658.218994140625 9698.9833984375 L -3622.91943359375 9681.84765625 L -3622.91943359375 9720.8994140625 L -3658.218994140625 9737.71875 Z"/><path class="m" d="M -3657.718994140625 9736.9267578125 L -3623.41943359375 9720.583984375 L -3623.41943359375 9682.6455078125 L -3657.718994140625 9699.2958984375 L -3657.718994140625 9736.9267578125 M -3658.718994140625 9738.5107421875 L -3658.718994140625 9698.669921875 L -3622.41943359375 9681.048828125 L -3622.41943359375 9721.21484375 L -3658.718994140625 9738.5107421875 Z"/></g><g class="d" transform="translate(107.785 32.883)"><path class="l" d="M -3680.19287109375 9737.9208984375 L -3715.59130859375 9720.51171875 L -3715.59130859375 9682.2744140625 L -3680.180908203125 9699.201171875 L -3680.19287109375 9737.9208984375 Z"/><path class="m" d="M -3715.09130859375 9683.0673828125 L -3715.09130859375 9720.2001953125 L -3680.692626953125 9737.1181640625 L -3680.68115234375 9699.515625 L -3715.09130859375 9683.0673828125 M -3716.09130859375 9681.4814453125 L -3679.680908203125 9698.8857421875 L -3679.693115234375 9738.7236328125 L -3716.09130859375 9720.8232421875 L -3716.09130859375 9681.4814453125 Z"/></g><g class="e" transform="translate(143.741 16.058)"><path class="l" d="M -3680.132080078125 9737.373046875 L -3715.390625 9719.4873046875 L -3715.390625 9681.517578125 L -3680.132080078125 9698.94140625 L -3680.132080078125 9737.373046875 Z"/><path class="m" d="M -3714.890625 9682.322265625 L -3714.890625 9719.1796875 L -3680.632080078125 9736.55859375 L -3680.632080078125 9699.251953125 L -3714.890625 9682.322265625 M -3715.890625 9680.712890625 L -3679.632080078125 9698.630859375 L -3679.632080078125 9738.1875 L -3715.890625 9719.7939453125 L -3715.890625 9680.712890625 Z"/></g><g class="f" transform="translate(86.667 33.042)"><path class="l" d="M -3658.220947265625 9737.748046875 L -3658.224609375 9699.1328125 L -3622.96923828125 9682.4326171875 L -3622.96923828125 9720.61328125 L -3658.220947265625 9737.748046875 Z"/><path class="m" d="M -3657.72119140625 9736.94921875 L -3623.46923828125 9720.2998046875 L -3623.46923828125 9683.22265625 L -3657.724609375 9699.44921875 L -3657.72119140625 9736.94921875 M -3658.720947265625 9738.546875 L -3658.724609375 9698.81640625 L -3622.46923828125 9681.642578125 L -3622.46923828125 9720.92578125 L -3658.720947265625 9738.546875 Z"/></g><path class="g" d="M-3563.369,9753.942l-35.766-17.177-9.437,17.551,35.343,17.983Z" transform="translate(-8.901 -21.763)"/><path class="h" d="M-3500.868,9739.477l-35.923,16.738,9.506,18.605,36.6-18.387Z" transform="translate(-35.159 -24.13)"/><path class="i" d="M-3472.734,9710.021l7.551,4.911-12.809,10.349Z" transform="translate(-73.963 -27.126)"/><path class="j" d="M7.761,0,9.925,4.607,0,9.285Z" transform="translate(-3544.748 9690.701) rotate(31)"/><path class="k" d="M8.322,0l2.506,5.256L0,8.773Z" transform="matrix(0.309, -0.951, 0.951, 0.309, -3561.55, 9694.525)"/></g></svg>