<svg xmlns="http://www.w3.org/2000/svg" xmlns:xlink="http://www.w3.org/1999/xlink" width="129.169" height="116.069" viewBox="0 0 129.169 116.069"><defs><style>.a{fill:url(#a);}.b{fill:url(#b);}.c{fill:url(#c);}.d{fill:url(#d);}.e{fill:url(#e);}.f{fill:url(#f);}.g{fill:url(#g);}.h{fill:url(#h);}.i,.n{stroke:#fff;}.i,.k,.n{stroke-miterlimit:10;}.i{fill:url(#i);}.j{fill:#fff;}.k,.l,.m{fill:none;}.k,.m{stroke:#93b5d8;stroke-width:0.5px;}.n{fill:url(#j);}</style><radialGradient id="a" cx="0.5" cy="0.5" r="0.5" gradientUnits="objectBoundingBox"><stop offset="0" stop-color="#fff" stop-opacity="0"/><stop offset="1" stop-color="#2e6bc4" stop-opacity="0.102"/></radialGradient><linearGradient id="b" x1="0.5" x2="0.5" y2="0.748" gradientUnits="objectBoundingBox"><stop offset="0" stop-color="#2e6bc4"/><stop offset="1" stop-color="#edf4ff"/></linearGradient><linearGradient id="c" x1="0.122" y1="1" x2="0.097" y2="0.372" xlink:href="#b"/><linearGradient id="d" y2="0.847" xlink:href="#b"/><linearGradient id="e" x1="0.122" y1="1" x2="0.122" y2="0.179" xlink:href="#b"/><linearGradient id="f" y2="1" xlink:href="#b"/><linearGradient id="g" x1="0.5" x2="0.5" y2="1" gradientUnits="objectBoundingBox"><stop offset="0" stop-color="#edf1f5"/><stop offset="0.527" stop-color="#acc9f4"/><stop offset="0.665" stop-color="#719ddd"/><stop offset="1" stop-color="#2e6bc4"/></linearGradient><linearGradient id="h" x1="0.513" y1="1" x2="0.511" y2="0.441" gradientUnits="objectBoundingBox"><stop offset="0" stop-color="#edf1f5"/><stop offset="1" stop-color="#2e6bc4"/></linearGradient><linearGradient id="i" x1="0.5" x2="0.5" y2="1" gradientUnits="objectBoundingBox"><stop offset="0" stop-color="#fdfeff"/><stop offset="0.749" stop-color="#edf1f5"/><stop offset="1" stop-color="#d3dde6"/></linearGradient><linearGradient id="j" x1="0.185" y1="0.033" x2="0.602" y2="1" gradientUnits="objectBoundingBox"><stop offset="0" stop-color="#fff"/><stop offset="0.522" stop-color="#eaf1f7"/><stop offset="0.68" stop-color="#dfe9f4"/><stop offset="1" stop-color="#93b5d8"/></linearGradient></defs><g transform="translate(13.155 -5)"><ellipse class="a" cx="64.585" cy="31.757" rx="64.585" ry="31.757" transform="translate(-13.155 57.556)"/><g transform="translate(0.65 3)"><path class="b" d="M0,18.05V0L7.738,4.515,1.124,8.369V18.05Z" transform="translate(89.275 19.716)"/><path class="c" d="M0,15.706V0H1.122V9.679l6.613,3.858L0,18.048Z" transform="translate(12.543 37.765) rotate(180)"/><path class="d" d="M0,18.05V0L7.738,4.515,1.124,8.369V18.05Z" transform="translate(74.808 10.692)"/><path class="e" d="M0,15.706V0H1.122V9.679l6.613,3.858L0,18.048Z" transform="translate(27.01 28.741) rotate(180)"/><path class="f" d="M20.722,22.106V17.961h-6.9v4.146h-3.2V17.961H4.093A4.091,4.091,0,0,1,0,13.872V4.093A4.094,4.094,0,0,1,4.093,0H30.45a4.094,4.094,0,0,1,4.093,4.093v9.779a4.091,4.091,0,0,1-4.093,4.089H23.919v4.146Z" transform="translate(33.743 2)"/><path class="g" d="M47.9,75.541c-24.167,0-43.758-12.6-43.758-28.145S23.737,19.251,47.9,19.251,91.662,31.852,91.662,47.4,72.07,75.541,47.9,75.541" transform="translate(2.876 6.585)"/><path class="h" d="M43.71,55.159c-21.85,0-39.565-8.038-39.565-17.954S21.859,19.251,43.71,19.251s39.565,8.038,39.565,17.954S65.56,55.159,43.71,55.159" transform="translate(7.07 50.12)"/><path class="i" d="M75.418,32.876h0a54.843,54.843,0,0,0-14.147-5.2,78.488,78.488,0,0,0-17.51-1.912,78.486,78.486,0,0,0-17.51,1.912,54.869,54.869,0,0,0-14.148,5.2C4.3,29.244,0,24.476,0,19.45a10.981,10.981,0,0,1,3.439-7.571A29.28,29.28,0,0,1,12.818,5.7a63.121,63.121,0,0,1,13.91-4.169A92.415,92.415,0,0,1,43.76,0,92.416,92.416,0,0,1,60.793,1.528,63.126,63.126,0,0,1,74.7,5.7a29.281,29.281,0,0,1,9.378,6.182A10.981,10.981,0,0,1,87.52,19.45c0,5.026-4.3,9.794-12.1,13.426Z" transform="translate(7.021 26.349)"/><rect class="j" width="9" height="2" transform="translate(39.135 10.313)"/><rect class="j" width="9" height="2" transform="translate(54.135 10.313)"/><path class="k" d="M47.9,52.237c-24.167,0-43.758-7.384-43.758-16.493S23.737,19.251,47.9,19.251s43.758,7.384,43.758,16.493S72.07,52.237,47.9,52.237" transform="translate(2.876 13.318)"/><path class="k" d="M47.9,56.026c-24.167,0-43.758-8.232-43.758-18.387S23.737,19.251,47.9,19.251s43.758,8.232,43.758,18.387S72.07,56.026,47.9,56.026" transform="translate(2.876 19.488)"/><path class="k" d="M47.9,55.27c-24.167,0-43.758-8.063-43.758-18.009S23.737,19.251,47.9,19.251,91.662,27.314,91.662,37.26,72.07,55.27,47.9,55.27" transform="translate(2.876 26.857)"/><path class="l" d="M7.292,39.439c0-10.326,18.837-18.7,42.076-18.7s42.074,8.373,42.074,18.7S72.6,58.14,49.368,58.14,7.292,49.767,7.292,39.439m-2.733-9.2A16.045,16.045,0,0,0,.866,44.386L8.695,81.123A16.078,16.078,0,0,0,15.571,91.3c4.695,3.047,12.664,6.521,25.306,7.62V88.155a8.981,8.981,0,1,1,17.962,0V98.816C70.89,97.61,78.721,94.252,83.456,91.3a16.111,16.111,0,0,0,7.193-10.622L97.781,44.2a16.1,16.1,0,0,0-3.746-13.881C88.43,24.1,76.144,17,49.261,17c-26.77,0-39.064,7.041-44.7,13.235" transform="translate(1.485 5.726)"/><path class="m" d="M19.275,32.569l9.709,22.87"/><path class="m" d="M28.985,32.569l-9.709,22.87" transform="translate(53.561)"/><path class="m" d="M16.132,26.49v25.53" transform="translate(34.859)"/><path class="n" d="M94.034,30.314C88.431,24.1,76.146,17,49.261,17c-26.77,0-39.065,7.041-44.7,13.235A16.046,16.046,0,0,0,.866,44.386L8.695,81.123A16.071,16.071,0,0,0,15.573,91.3c4.693,3.047,12.664,6.521,25.305,7.62V88.155a8.981,8.981,0,1,1,17.962,0V98.816c12.051-1.2,19.883-4.564,24.618-7.516a16.113,16.113,0,0,0,7.192-10.622L97.781,44.2A16.1,16.1,0,0,0,94.034,30.314ZM49.366,58.14c-23.237,0-42.073-8.373-42.073-18.7s18.836-18.7,42.073-18.7,42.074,8.373,42.074,18.7S72.6,58.14,49.366,58.14Z" transform="translate(1.485 5.726)"/></g></g></svg>