<svg xmlns="http://www.w3.org/2000/svg" xmlns:xlink="http://www.w3.org/1999/xlink" width="130" height="92.999" viewBox="0 0 130 92.999"><defs><style>.a,.d{fill:#fff;}.a{stroke:#707070;opacity:0;}.b{fill:url(#a);}.c{stroke:#fff;stroke-width:2px;fill:url(#b);}.e{fill:#477dcb;}.f{stroke:none;}.g{fill:none;}</style><radialGradient id="a" cx="0.5" cy="0.5" r="0.5" gradientUnits="objectBoundingBox"><stop offset="0" stop-color="#fff" stop-opacity="0"/><stop offset="1" stop-color="#d3dff2"/></radialGradient><linearGradient id="b" x1="0.5" x2="0.5" y2="1" gradientUnits="objectBoundingBox"><stop offset="0" stop-color="#ddeaff"/><stop offset="0.512" stop-color="#a3bfec"/><stop offset="1" stop-color="#2d69c1"/></linearGradient></defs><g transform="translate(33.162 6.14)"><g class="a" transform="translate(-10.072 -1.671)"><rect class="f" width="83.335" height="83.335"/><rect class="g" x="0.5" y="0.5" width="82.335" height="82.335"/></g><ellipse class="b" cx="65" cy="17.5" rx="65" ry="17.5" transform="translate(-33.162 51.859)"/><g transform="translate(-86.439 -26.473)"><path class="c" d="M147.631,27.22a77.343,77.343,0,0,0-59.191,0A4.84,4.84,0,0,0,85.333,31.8v30.74c0,16.187,22.891,29.759,30.576,33.52a4.851,4.851,0,0,0,4.251,0c7.685-3.761,30.576-17.332,30.576-33.52V31.8A4.84,4.84,0,0,0,147.631,27.22Z" transform="translate(0 0)"/><path class="d" d="M122.559,57.9v4.484h9.5v3.547h-9.5v4.09h5.707v2.917h-5.707v4.292a2.357,2.357,0,1,1-4.714,0V57.9a6.866,6.866,0,0,1-4.715-6.6,7.072,7.072,0,0,1,14.143,0A7.184,7.184,0,0,1,122.559,57.9Z" transform="translate(-2.899 -5.416)"/><path class="e" d="M493.6,365.6m-2.931,0a2.931,2.931,0,1,0,2.931-2.931A2.931,2.931,0,0,0,490.667,365.6Z" transform="translate(-376.235 -319.761)"/></g></g></svg>