<svg xmlns="http://www.w3.org/2000/svg" xmlns:xlink="http://www.w3.org/1999/xlink" width="129.169" height="107.816" viewBox="0 0 129.169 107.816"><defs><style>.a{fill:url(#a);}.b,.c{stroke:#fff;}.b{fill:url(#b);}.c{fill:#edeef4;}.d{fill:#2e6bc4;}.e{fill:#608ed2;}.f{fill:#8eafdf;}.g{fill:url(#c);}.h{fill:#fff;}.i,.k{stroke:none;}.j{fill:none;}.k{fill:#fff;}</style><radialGradient id="a" cx="0.5" cy="0.5" r="0.5" gradientUnits="objectBoundingBox"><stop offset="0" stop-color="#fff" stop-opacity="0"/><stop offset="1" stop-color="#2e6bc4" stop-opacity="0.102"/></radialGradient><linearGradient id="b" x1="0.5" x2="0.5" y2="1" gradientUnits="objectBoundingBox"><stop offset="0" stop-color="#98bdf4"/><stop offset="1" stop-color="#2e6bc4"/></linearGradient><linearGradient id="c" x1="0.5" x2="0.5" y2="1" gradientUnits="objectBoundingBox"><stop offset="0" stop-color="#f3f6fa"/><stop offset="1" stop-color="#93afd8"/></linearGradient></defs><g transform="translate(13.155 -13.253)"><ellipse class="a" cx="64.585" cy="31.757" rx="64.585" ry="31.757" transform="translate(-13.155 57.556)"/><g transform="translate(-225.16 -439.351)"><g class="b" transform="translate(244.461 481.568)"><rect class="i" width="64.036" height="34.614" rx="3"/><rect class="j" x="0.5" y="0.5" width="63.036" height="33.614" rx="2.5"/></g><g transform="matrix(0.966, -0.259, 0.259, 0.966, 243.182, 466.68)"><g class="c" transform="translate(0 0)"><rect class="i" width="54.384" height="55.184" rx="2"/><rect class="j" x="0.5" y="0.5" width="53.384" height="54.184" rx="1.5"/></g><rect class="d" width="35.19" height="2.399" rx="1.2" transform="translate(9.597 10.397)"/><rect class="e" width="35.19" height="2.399" rx="1.2" transform="translate(9.597 20.794)"/><rect class="f" width="23.193" height="2.399" rx="1.2" transform="translate(9.597 31.191)"/></g><g class="g" transform="translate(241 493.023)"><path class="i" d="M 60.78219604492188 47.68501281738281 L 10.39695644378662 47.68501281738281 C 7.144716739654541 47.68501281738281 4.498826503753662 45.03912353515625 4.498826503753662 41.78688430786133 L 4.498826503753662 41.7513542175293 L 4.493796825408936 41.7161750793457 L 0.5000981688499451 13.76029491424561 C 0.5187395215034485 10.52387142181396 3.157399892807007 7.896954536437988 6.398126602172852 7.896954536437988 L 35.86762619018555 7.896954536437988 L 36.10067749023438 7.896954536437988 L 36.25053787231445 7.718484401702881 L 44.83092498779297 -2.499995470046997 L 64.78102874755859 -2.499995470046997 C 68.02473449707031 -2.499995470046997 70.66526794433594 0.1321661174297333 70.67910003662109 3.372672319412231 L 66.68301391601562 41.73508453369141 L 66.68032836914062 41.76091384887695 L 66.68032836914062 41.78688430786133 C 66.68032836914062 45.03912353515625 64.03443908691406 47.68501281738281 60.78219604492188 47.68501281738281 Z"/><path class="k" d="M 45.06396865844727 -2.000003814697266 L 36.33372497558594 8.396953582763672 L 6.398124694824219 8.396953582763672 C 3.444297790527344 8.396953582763672 1.036979675292969 10.78165817260742 1.000419616699219 13.72697830200195 L 4.998825073242188 41.71581268310547 L 4.998825073242188 41.78688430786133 C 4.998825073242188 44.7634162902832 7.420417785644531 47.18500518798828 10.39695739746094 47.18500518798828 L 60.78219604492188 47.18500518798828 C 63.75872802734375 47.18500518798828 66.18031311035156 44.7634162902832 66.18031311035156 41.78688430786133 L 66.18031311035156 41.73494338989258 L 70.17893218994141 3.348335266113281 C 70.15223693847656 0.3945159912109375 67.74102783203125 -2.000003814697266 64.78101348876953 -2.000003814697266 L 45.06396865844727 -2.000003814697266 M 44.59787750244141 -3.000003814697266 L 64.78101348876953 -3.000003814697266 C 68.31461334228516 -3.000003814697266 71.17915344238281 -0.1354637145996094 71.17915344238281 3.398124694824219 L 67.18031311035156 41.78688430786133 C 67.18031311035156 45.32046508789062 64.31578826904297 48.18500518798828 60.78219604492188 48.18500518798828 L 10.39695739746094 48.18500518798828 C 6.863365173339844 48.18500518798828 3.998825073242188 45.32046508789062 3.998825073242188 41.78688430786133 L 0 13.79508399963379 C 0 10.26149368286133 2.864540100097656 7.396953582763672 6.398124694824219 7.396953582763672 L 35.86762619018555 7.396953582763672 L 44.59787750244141 -3.000003814697266 Z"/></g><rect class="h" width="13.846" height="1.731" rx="0.865" transform="translate(256.576 523.901)"/></g></g></svg>