<svg xmlns="http://www.w3.org/2000/svg" width="8.881" height="17.716" viewBox="0 0 8.881 17.716"><defs><style>.a{fill:#2e6bc4;}</style></defs><path class="a" d="M68.773,195.848a.9.9,0,0,1,1.274,0,.867.867,0,0,1,0,1.265l-3.53,3.511a.594.594,0,0,1-.283.184,1.041,1.041,0,0,1-.359.042,1.2,1.2,0,0,1-.373-.08.9.9,0,0,1-.316-.2l-3.473-3.454a.867.867,0,0,1,0-1.265.88.88,0,0,1,.3-.2.907.907,0,0,1,.34-.066.943.943,0,0,1,.344.066.869.869,0,0,1,.3.2l2.888,2.85Z" transform="translate(-61.44 -183.136)"/><path class="a" d="M7.333.264a.9.9,0,0,1,1.274,0A.848.848,0,0,1,8.881.9a.848.848,0,0,1-.274.632L5.078,5.04a.594.594,0,0,1-.283.184,1.041,1.041,0,0,1-.359.042,1.2,1.2,0,0,1-.373-.08.9.9,0,0,1-.316-.2L.274,1.529A.848.848,0,0,1,0,.9.848.848,0,0,1,.274.264a.879.879,0,0,1,.3-.2A.907.907,0,0,1,.911,0a.944.944,0,0,1,.344.066.868.868,0,0,1,.3.2l2.888,2.85Z" transform="translate(8.881 5.268) rotate(180)"/></svg>