<svg xmlns="http://www.w3.org/2000/svg" width="20" height="20" viewBox="0 0 20 20"><defs><style>.a{fill:#fff;opacity:0;}.b{stroke:#000;stroke-width:0.1px;}</style></defs><rect class="a" width="20" height="20"/><path class="b" d="M13.618,13.711A8,8,0,1,1,16.02,8a7.972,7.972,0,0,1-2.4,5.71Zm-5.6,1.148a6.825,6.825,0,0,0,4.29-1.512,4.536,4.536,0,0,0-8.579,0A6.825,6.825,0,0,0,8.019,14.859Zm0-13.716a6.852,6.852,0,0,0-5.19,11.332,5.709,5.709,0,0,1,10.38,0A6.852,6.852,0,0,0,8.019,1.144Zm0,7.429a2.857,2.857,0,1,1,2.857-2.857A2.857,2.857,0,0,1,8.019,8.573ZM8.019,4A1.714,1.714,0,1,0,9.733,5.715,1.714,1.714,0,0,0,8.019,4Z" transform="translate(1.981 1.999)"/></svg>