<svg xmlns="http://www.w3.org/2000/svg" width="22" height="22" viewBox="0 0 22 22"><g transform="translate(0 0)"><path d="M22,92.667H0V88.083a2.75,2.75,0,0,1,2.75-2.75h16.5A2.75,2.75,0,0,1,22,88.083ZM1.833,90.833H20.167v-2.75a.917.917,0,0,0-.917-.917H2.75a.917.917,0,0,0-.917.917Z" transform="translate(0 -83.5)"/><path d="M19.25,22H2.75A2.75,2.75,0,0,1,0,19.25V7.333H22V19.25A2.75,2.75,0,0,1,19.25,22ZM1.833,9.167V19.25a.917.917,0,0,0,.917.917h16.5a.917.917,0,0,0,.917-.917V9.167Zm4.583-2.75A.917.917,0,0,1,5.5,5.5V.917a.917.917,0,1,1,1.833,0V5.5a.917.917,0,0,1-.917.917Zm9.167,0a.917.917,0,0,1-.917-.917V.917a.917.917,0,0,1,1.833,0V5.5a.917.917,0,0,1-.917.917Z" transform="translate(0 0)"/></g></svg>