<svg xmlns="http://www.w3.org/2000/svg" xmlns:xlink="http://www.w3.org/1999/xlink" width="16" height="16" viewBox="0 0 16 16"><defs><style>.a,.c{fill:#9699a8;}.a{opacity:0;}.b{clip-path:url(#a);}</style><clipPath id="a"><rect class="a" width="16" height="16"/></clipPath></defs><g transform="translate(-168.967 -666)"><g transform="translate(156.2 56.232)"><rect class="a" width="16" height="16" transform="translate(12.768 609.768)"/><g class="b" transform="translate(12.768 609.768)"><g transform="matrix(0.891, 0.454, -0.454, 0.891, 4.691, -1.125)"><g transform="translate(0 0)"><path class="c" d="M.345,3.245h0A.345.345,0,0,1,0,2.9V.345a.345.345,0,0,1,.69,0V2.9a.345.345,0,0,1-.345.345" transform="translate(6.744 0)"/><path class="c" d="M.1,2.4h0a.345.345,0,0,1,0-.488L1.908.1A.345.345,0,0,1,2.4.589L.589,2.4A.345.345,0,0,1,.1,2.4" transform="translate(8.071 0.739)"/><path class="c" d="M2.4,2.4h0a.345.345,0,0,1-.488,0L.1.589A.345.345,0,0,1,.589.1L2.4,1.908a.345.345,0,0,1,0,.488" transform="translate(3.366 0.739)"/><path class="c" d="M13.432,2.826a.784.784,0,0,0-.468.154A3.753,3.753,0,0,0,9.3.012h0V0H7.928a.14.14,0,0,0-.14.14V1.552a.135.135,0,0,1-.135.135H6.381a.135.135,0,0,1-.135-.135V.14A.14.14,0,0,0,6.106,0H.232A.232.232,0,0,0,0,.232V1.876A.232.232,0,0,0,.168,2.1l5.4,1.267a3.752,3.752,0,0,0,7.448.913.787.787,0,1,0,.421-1.453M9.312,5.372a1.759,1.759,0,1,1,1.759-1.759A1.759,1.759,0,0,1,9.312,5.372m4.121-1.427a.331.331,0,1,1,.331-.331.331.331,0,0,1-.331.331" transform="translate(0 5.062)"/></g></g></g></g></g></svg>