<svg xmlns="http://www.w3.org/2000/svg" width="8.881" height="17.716" viewBox="0 0 8.881 17.716"><defs><style>.a{fill:#2e6bc4;}</style></defs><g transform="translate(0 0)"><path class="a" d="M68.773,200.588a.9.9,0,0,0,1.274,0,.867.867,0,0,0,0-1.265l-3.53-3.511a.594.594,0,0,0-.283-.184,1.041,1.041,0,0,0-.359-.042,1.2,1.2,0,0,0-.373.08.9.9,0,0,0-.316.2l-3.473,3.454a.867.867,0,0,0,0,1.265.88.88,0,0,0,.3.2.907.907,0,0,0,.34.066.943.943,0,0,0,.344-.066.869.869,0,0,0,.3-.2l2.888-2.85Z" transform="translate(-61.44 -183.136)"/><path class="a" d="M7.333,5A.9.9,0,0,0,8.608,5a.867.867,0,0,0,0-1.265L5.078.228A.594.594,0,0,0,4.795.044,1.041,1.041,0,0,0,4.436,0a1.2,1.2,0,0,0-.373.08.9.9,0,0,0-.316.2L.274,3.739A.867.867,0,0,0,.274,5a.879.879,0,0,0,.3.2.907.907,0,0,0,.34.066A.944.944,0,0,0,1.255,5.2a.868.868,0,0,0,.3-.2l2.888-2.85Z" transform="translate(8.881 5.268) rotate(180)"/></g></svg>