<svg xmlns="http://www.w3.org/2000/svg" width="18" height="18" viewBox="0 0 18 18"><defs><style>.a{fill:none;}.b,.c{stroke:none;}.c{fill:#9799a8;}</style></defs><g class="a"><path class="b" d="M8.11,1.74a1,1,0,0,1,1.78,0L11.7,5.282a1,1,0,0,0,.7.527l3.841.732A1,1,0,0,1,16.8,8.2l-2.755,3.029a1,1,0,0,0-.252.8l.529,4.1a1,1,0,0,1-1.444,1.02L9.452,15.411a1,1,0,0,0-.9,0L5.123,17.146a1,1,0,0,1-1.444-1.02l.529-4.1a1,1,0,0,0-.252-.8L1.2,8.2a1,1,0,0,1,.552-1.655l3.841-.732a1,1,0,0,0,.7-.527Z"/><path class="c" d="M 9.000000953674316 2.195510864257812 C 8.999999046325684 2.195510864257812 8.999997138977051 2.195510864257812 9.000000953674316 2.195499420166016 L 7.187931060791016 5.737290382385254 C 6.904880523681641 6.290510177612305 6.392440795898438 6.67455005645752 5.782031059265137 6.790929794311523 L 1.941061019897461 7.523289680480957 C 1.941059112548828 7.523290634155273 1.941057205200195 7.523285865783691 1.941055297851562 7.523293495178223 C 1.941057205200195 7.523295402526855 1.941059112548828 7.523297309875488 1.941061019897461 7.523300170898438 L 4.695860862731934 10.55208969116211 C 5.091370582580566 10.98692989349365 5.275080680847168 11.57067012786865 5.199891090393066 12.15359020233154 L 4.671091079711914 16.25428009033203 L 8.096270561218262 14.51934051513672 C 8.375020980834961 14.37814998626709 8.687530517578125 14.30352020263672 9.000000953674316 14.30352020263672 C 9.312471389770508 14.30352020263672 9.624971389770508 14.37814998626709 9.903720855712891 14.51934051513672 L 13.32888793945312 16.2542724609375 C 13.32889175415039 16.25427055358887 13.32889556884766 16.25426864624023 13.32890129089355 16.25428009033203 L 12.80010032653809 12.15359020233154 C 12.72493076324463 11.57064056396484 12.90864086151123 10.98691940307617 13.30413055419922 10.55210018157959 L 16.05894088745117 7.523289680480957 L 12.21796035766602 6.790929794311523 C 11.60753059387207 6.674539566040039 11.09510040283203 6.29049015045166 10.81206130981445 5.737270355224609 L 9.000005722045898 2.195510864257812 C 9.000004768371582 2.195510864257812 9.000002861022949 2.195510864257812 9.000000953674316 2.195510864257812 M 9.000000953674316 1.195507049560547 C 9.352260589599609 1.195507049560547 9.704521179199219 1.37701416015625 9.890251159667969 1.740030288696289 L 11.70231056213379 5.281800270080566 C 11.84282112121582 5.556440353393555 12.1022310256958 5.750849723815918 12.40526103973389 5.808629989624023 L 16.24624061584473 6.540989875793457 C 17.01383018493652 6.687350273132324 17.32450103759766 7.618080139160156 16.7987117767334 8.196149826049805 L 14.04391098022461 11.22494983673096 C 13.846510887146 11.44198036193848 13.75437164306641 11.73473930358887 13.79189109802246 12.02569961547852 L 14.32069110870361 16.12639045715332 C 14.42337036132812 16.9226188659668 13.59323120117188 17.50914001464844 12.87704086303711 17.14636993408203 L 9.451861381530762 15.41143035888672 C 9.16779899597168 15.26754951477051 8.832199096679688 15.26755046844482 8.548130989074707 15.41143035888672 L 5.122961044311523 17.14636993408203 C 4.406769752502441 17.50914001464844 3.576630592346191 16.9226188659668 3.679301261901855 16.12639045715332 L 4.208101272583008 12.02569961547852 C 4.245631217956543 11.73473930358887 4.153491020202637 11.44198036193848 3.956090927124023 11.22494983673096 L 1.20128059387207 8.196149826049805 C 0.6755008697509766 7.618080139160156 0.9861717224121094 6.687350273132324 1.753761291503906 6.540989875793457 L 5.594731330871582 5.808629989624023 C 5.897770881652832 5.750849723815918 6.157171249389648 5.556440353393555 6.297691345214844 5.281800270080566 L 8.109750747680664 1.740030288696289 C 8.295480728149414 1.37701416015625 8.647741317749023 1.195507049560547 9.000000953674316 1.195507049560547 Z"/></g></svg>