<svg xmlns="http://www.w3.org/2000/svg" width="20" height="20" viewBox="0 0 20 20"><defs><style>.a{fill:#eaeaea;opacity:0;}.b{fill:#f5646b;}.c{fill:#16c15e;}.d{fill:#f25660;}</style></defs><g transform="translate(0.312 0.266)"><rect class="a" width="20" height="20" transform="translate(-0.312 -0.266)"/><g transform="translate(3.493 1.59)"><path class="b" d="M-1356.4-8122.614v-3.059h-3.055v-1.527h3.055v-3.057h1.528v3.057h3.055v1.527h-3.055v3.059Z" transform="translate(1361.708 8135.169)"/><path class="c" d="M0,7.089A6.448,6.448,0,0,1,.682,4.2,7.969,7.969,0,0,1,7.873,0a8.07,8.07,0,0,1,6.9,3.67l.974-.4-.49,4.052L12.094,4.759l.647-.263A5.822,5.822,0,0,0,7.873,2,5.725,5.725,0,0,0,2.707,5.014a4.629,4.629,0,0,0-.489,2.075,1.058,1.058,0,0,1-1.109,1A1.058,1.058,0,0,1,0,7.089Z" transform="translate(-1.805 0.145)"/><path class="d" d="M0,7.089A6.448,6.448,0,0,1,.682,4.2,7.969,7.969,0,0,1,7.873,0a8.07,8.07,0,0,1,6.9,3.67l.974-.4-.49,4.052L12.094,4.759l.647-.263A5.822,5.822,0,0,0,7.873,2,5.725,5.725,0,0,0,2.707,5.014a4.629,4.629,0,0,0-.489,2.075,1.058,1.058,0,0,1-1.109,1A1.058,1.058,0,0,1,0,7.089Z" transform="translate(13.939 16.819) rotate(180)"/></g></g></svg>