<svg xmlns="http://www.w3.org/2000/svg" width="22" height="22" viewBox="0 0 22 22"><defs><style>.a{opacity:0;}</style></defs><g transform="translate(-25 -3)"><rect class="a" width="22" height="22" transform="translate(25 3)"/><path d="M118.65,161.961h-13.97a1.027,1.027,0,0,0,0,2.055h13.97a1.027,1.027,0,0,0,0-2.055Zm0,5.958h-13.97a1.027,1.027,0,0,0,0,2.055h13.97a1.027,1.027,0,1,0,0-2.055Zm-13.97-9.861h13.97a1.027,1.027,0,0,0,0-2.055h-13.97a1.027,1.027,0,0,0,0,2.055Z" transform="translate(-75.664 -148.988)"/></g></svg>