<svg xmlns="http://www.w3.org/2000/svg" width="22" height="22" viewBox="0 0 22 22"><defs><style>.a{opacity:0;}.b{fill:#040000;stroke:#000;stroke-width:0.5px;}</style></defs><g transform="translate(-25 -3)"><rect class="a" width="22" height="22" transform="translate(25 3)"/><g transform="translate(-57.512 -99.321)"><path class="b" d="M93.955,122.45a1.339,1.339,0,0,1-.747-.229l-3.038-2.057a1.52,1.52,0,0,1-.669-1.26v-7.147l-4.817-4.794a1.621,1.621,0,0,1,1.143-2.771H99.04a1.617,1.617,0,0,1,1.137,2.771l-4.884,4.822v9.327a1.334,1.334,0,0,1-1.338,1.338Zm-8.123-16.92a.272.272,0,0,0-.262.173.264.264,0,0,0,.061.307l5.012,5a.662.662,0,0,1,.2.474V118.9a.178.178,0,0,0,.078.151l3.033,2.052v-9.6a.658.658,0,0,1,.2-.474l5.084-5.017a.265.265,0,0,0,.061-.307.272.272,0,0,0-.262-.173h-13.2Z" transform="translate(0 0)"/><path class="b" d="M663.122,483.9h-4.789a.669.669,0,1,1,0-1.338h4.789a.669.669,0,1,1,0,1.338Zm0,3.679h-4.789a.669.669,0,1,1,0-1.338h4.789a.669.669,0,1,1,0,1.338Zm0,3.674h-4.789a.669.669,0,1,1,0-1.338h4.789a.669.669,0,1,1,0,1.338Z" transform="translate(-560.971 -370.128)"/></g></g></svg>