<svg xmlns="http://www.w3.org/2000/svg" xmlns:xlink="http://www.w3.org/1999/xlink" width="21" height="21" viewBox="0 0 21 21"><defs><style>.a,.c{fill:#fff;}.a{stroke:#707070;}.b{clip-path:url(#a);}.c{opacity:0;}.d{fill:#2e6bc4;}</style><clipPath id="a"><rect class="a" width="21" height="21" transform="translate(16.275 183.275)"/></clipPath></defs><g transform="translate(-16.275 -183.275)"><g class="b"><rect class="c" width="21" height="21" transform="translate(16.275 183.275)"/><path class="d" d="M199.2,60.6v5.677h-1.8V60.6h-4.7a.645.645,0,0,1-.491-.222A.745.745,0,0,1,192,59.85a4.234,4.234,0,0,1,.858-2.6,2.431,2.431,0,0,1,1.94-1.153V51a1.307,1.307,0,0,1-.985-.446,1.547,1.547,0,0,1,0-2.11,1.308,1.308,0,0,1,.985-.446h7a1.307,1.307,0,0,1,.985.446,1.546,1.546,0,0,1,0,2.11,1.3,1.3,0,0,1-.986.446v5.1a2.428,2.428,0,0,1,1.94,1.153,4.241,4.241,0,0,1,.86,2.6.739.739,0,0,1-.207.527.658.658,0,0,1-.491.222h-4.7Z" transform="translate(-171.52 136.639)"/></g></g></svg>