<svg xmlns="http://www.w3.org/2000/svg" width="14" height="14" viewBox="0 0 14 14"><defs><style>.a{fill:#fff;opacity:0;}.b{fill:#15953c;}</style></defs><g transform="translate(-358 -15)"><rect class="a" width="14" height="14" transform="translate(358 15)"/><path class="b" d="M132.075,127.662v.046c0,.014,0,.027,0,.044a.074.074,0,0,1,0,.024.211.211,0,0,1-.005.041c0,.008,0,.019,0,.027s0,.022-.005.033a.157.157,0,0,0-.006.035c0,.008,0,.016-.005.022s-.008.033-.011.049,0,.005,0,.008a1.381,1.381,0,0,1-.365.634L128.46,131.8a1.422,1.422,0,0,1-1.995,0,1.391,1.391,0,0,1,0-1.976l.794-.787H121.49a1.4,1.4,0,1,1,0-2.8h9.176a1.416,1.416,0,0,1,1,.408,1.39,1.39,0,0,1,.412.991C132.078,127.648,132.075,127.657,132.075,127.662Zm0-4.886a1.409,1.409,0,0,1-1.412,1.4H121.49a1.417,1.417,0,0,1-1-.408,1.391,1.391,0,0,1-.412-.991v-.065c0-.014,0-.03,0-.044a.074.074,0,0,1,0-.024.208.208,0,0,1,.005-.041c0-.008,0-.019,0-.027s0-.022.005-.033a.158.158,0,0,0,.005-.035c0-.008,0-.016.006-.022s.008-.033.011-.049,0-.005,0-.008a1.381,1.381,0,0,1,.365-.634l3.2-3.174a1.422,1.422,0,0,1,1.994,0,1.391,1.391,0,0,1,0,1.976l-.788.784h5.769A1.41,1.41,0,0,1,132.078,122.776Z" transform="translate(490.211 -104.078) rotate(90)"/></g></svg>