<svg xmlns="http://www.w3.org/2000/svg" width="32" height="32" viewBox="0 0 32 32"><defs><style>.a{fill:#2e6bc4;opacity:0;}.b{fill:gray;}</style></defs><g transform="translate(5.62 1.283)"><rect class="a" width="32" height="32" rx="16" transform="translate(-5.62 -1.283)"/><path class="b" d="M12.976,9.762a.52.52,0,0,0-.7-.263.512.512,0,0,0-.25.263L11.1,11.8l-2.138.3a.551.551,0,0,0-.288.938l1.563,1.55-.4,2.225a.553.553,0,0,0,.413.638.5.5,0,0,0,.35-.063l1.9-1.075,1.9,1.075a.516.516,0,0,0,.713-.225.522.522,0,0,0,.05-.363l-.388-2.225,1.563-1.55a.563.563,0,0,0,.012-.775.509.509,0,0,0-.313-.163l-2.138-.3-.925-2.025ZM23.751.512H1.251A1.254,1.254,0,0,0,0,1.762v3.5a1.254,1.254,0,0,0,1.25,1.25H3V18.587a2.679,2.679,0,0,0,1.263,2.288l6.9,4.263a2.573,2.573,0,0,0,2.675,0l6.913-4.263a2.708,2.708,0,0,0,1.263-2.288V6.512h1.75a1.254,1.254,0,0,0,1.25-1.25v-3.5A1.273,1.273,0,0,0,23.751.512ZM20,8.262V18.587a.65.65,0,0,1-.313.575l-6.9,4.275a.594.594,0,0,1-.288.088.486.486,0,0,1-.288-.088L5.3,19.175a.678.678,0,0,1-.313-.575V6.512h15V8.2A.136.136,0,0,1,20,8.262Zm3-3.75H2v-2H23Z" transform="translate(-2.127 3.077)"/></g></svg>