<svg xmlns="http://www.w3.org/2000/svg" width="32" height="32" viewBox="0 0 32 32"><defs><style>.a{fill:#2e6bc4;}.b{fill:#fff;}</style></defs><g transform="translate(5.62 1.283)"><rect class="a" width="32" height="32" rx="16" transform="translate(-5.62 -1.283)"/><path class="b" d="M9.312,18.641a.444.444,0,0,1-.256-.076l-6.13-3.783a.609.609,0,0,1-.277-.51V3.551H15.957v1.5a.118.118,0,0,1,.011.055V14.26a.588.588,0,0,1-.276.514L9.566,18.564A.573.573,0,0,1,9.312,18.641ZM9.286,6.154a.413.413,0,0,0-.175.043.451.451,0,0,0-.2.2.08.08,0,0,0-.021.035L8.073,8.238l-1.9.266a.479.479,0,0,0-.4.541.492.492,0,0,0,.145.293L7.3,10.709l-.353,1.975a.486.486,0,0,0,.363.566.256.256,0,0,0,.081.014.477.477,0,0,0,.23-.066l1.688-.951L11,13.2a.455.455,0,0,0,.225.055A.45.45,0,0,0,11.634,13a.436.436,0,0,0,.041-.32L11.332,10.7l1.386-1.377a.449.449,0,0,0,.145-.336.536.536,0,0,0-.133-.348.439.439,0,0,0-.277-.145L10.56,8.229l-.823-1.8a.452.452,0,0,0-.409-.275H9.312A.116.116,0,0,0,9.286,6.154Zm9.342-4.383H0V0H18.628V1.771Z" transform="translate(0.955 6.271)"/></g></svg>