<svg xmlns="http://www.w3.org/2000/svg" width="20" height="20" viewBox="0 0 20 20"><defs><style>.a{fill:#eaeaea;opacity:0;}.b,.c{fill:#2e6bc4;}.c{stroke:#2e6bc4;stroke-width:0.2px;}</style></defs><g transform="translate(-0.453 -0.208)"><rect class="a" width="20" height="20" transform="translate(0.453 0.208)"/><g transform="translate(0.453 3.951)"><path class="b" d="M1.816,1.666v10H18.16v-10H1.816M0,0H19.976V13.33H0Z" transform="translate(0 -1.292)"/><rect class="b" width="6.904" height="3.452" transform="translate(6.55 10.352)"/><g transform="translate(3.689 3.153)"><path class="c" d="M3.182,0,2.095,3.284.972,0H0L1.586,4.438h.957L4.132,0Z" transform="translate(0 0)"/><path class="c" d="M46.65,1.035l.612,1.647H46.05ZM46.187,0,44.458,4.438h.951l.366-1.008h1.774l.388,1.008h.975L47.134,0Z" transform="translate(-40.78 0)"/><path class="c" d="M104.063,4.438V0h1.886a3.225,3.225,0,0,1,1.034.12,1.021,1.021,0,0,1,.516.425,1.28,1.28,0,0,1,.194.7,1.185,1.185,0,0,1-.294.825,1.41,1.41,0,0,1-.878.41,2.084,2.084,0,0,1,.48.372,5.06,5.06,0,0,1,.51.721l.542.866h-1.072l-.648-.966a6.281,6.281,0,0,0-.472-.652.689.689,0,0,0-.269-.185,1.478,1.478,0,0,0-.451-.05h-.182V4.438Zm.9-2.561h.663a3.426,3.426,0,0,0,.805-.054.483.483,0,0,0,.251-.188.578.578,0,0,0,.091-.333.533.533,0,0,0-.12-.362.549.549,0,0,0-.338-.174q-.109-.015-.654-.015h-.7Z" transform="translate(-95.454 0)"/></g></g></g></svg>