<svg xmlns="http://www.w3.org/2000/svg" width="20" height="20" viewBox="0 0 20 20"><defs><style>.a,.b{fill:#fff;}.a{opacity:0;}</style></defs><g transform="translate(-3.001 -4)"><rect class="a" width="20" height="20" transform="translate(3.001 4)"/><path class="b" d="M65.561,181.333a.548.548,0,0,1,.545.495l0,.053v2.876l2.055-1.2a.548.548,0,0,1,.823.473v6.57a.548.548,0,0,1-.824.473l-2.055-1.2V192.1a.548.548,0,0,1-.495.545l-.053,0H53.881a.548.548,0,0,1-.545-.495l0-.053v-10.22a.548.548,0,0,1,.495-.545l.053,0ZM57.713,184.8v4.38a.548.548,0,0,0,.829.469l3.65-2.19a.548.548,0,0,0,0-.939l-3.65-2.19a.548.548,0,0,0-.829.469Z" transform="translate(-48.161 -172.992)"/></g></svg>