<svg xmlns="http://www.w3.org/2000/svg" width="20" height="20" viewBox="0 0 20 20"><defs><style>.a{fill:#fff;opacity:0;}.b{stroke:#000;stroke-width:0.3px;}</style></defs><rect class="a" width="20" height="20"/><path class="b" d="M44.934,16.917c-.507-.285-.493-.045-.5-8.263,0-6.959.012-7.7.16-8.007C44.9.007,44.941,0,49.315,0h3.921l4.72,4.983V16.364l-.285.318L57.387,17l-6.108.022C46.329,17.043,45.123,17.022,44.934,16.917ZM56.954,11l.026-5.022H55.03c-1.718,0-1.974-.022-2.146-.172-.347-.3-.414-.756-.414-2.833v-2L48.965,1l-3.5.026-.026,7.4c-.014,4.069,0,7.455.022,7.522.038.1,1.242.117,5.758.1l5.711-.026Zm-9.971,1.543v-.49h8.526v.981H46.982Zm0-1.957V10.1h8.536l-.06.931-4.237.026-4.239.026Zm0-2.55v-.49H50.9v.981H46.982Zm0-2.057v-.49H50.9v.981H46.982v-.49ZM55,3.419,53.5,1.84,53.468,3.2c-.041,1.981-.2,1.8,1.56,1.8h1.478L55,3.419Zm0,0" transform="translate(-41.196 1.485)"/></svg>