<svg xmlns="http://www.w3.org/2000/svg" width="18" height="18" viewBox="0 0 18 18"><defs><style>.a{fill:#1fa300;}</style></defs><path class="a" d="M71.95,64.756a9,9,0,1,0,9,9,9.011,9.011,0,0,0-9-9Zm4.343,7.515L71.123,77.5l-.005,0s0,0,0,.005a.656.656,0,0,1-.14.092.559.559,0,0,1-.068.044.65.65,0,0,1-.242.047.639.639,0,0,1-.244-.048.822.822,0,0,1-.071-.047.628.628,0,0,1-.139-.092l0-.005-.005,0-2.543-2.613a.646.646,0,1,1,.926-.9l2.084,2.141,4.707-4.759a.646.646,0,1,1,.918.909Zm0,0" transform="translate(-62.95 -64.756)"/></svg>