<svg xmlns="http://www.w3.org/2000/svg" width="20" height="20" viewBox="0 0 20 20"><defs><style>.a{fill:#fff;opacity:0;}.b{fill:#1a1a1a;}</style></defs><rect class="a" width="20" height="20"/><path class="b" d="M76.026,5.408a.831.831,0,0,1,.113,1.112l-.051.062L72.5,10.57a2.494,2.494,0,0,1-3.381.3l-.095-.077-2.4-2.061a.831.831,0,0,1,1.018-1.311l.063.049,2.4,2.061a.831.831,0,0,0,1.1-.019l.056-.056,3.59-3.989A.831.831,0,0,1,76.026,5.408ZM71.262,2.061a11.886,11.886,0,0,1-5.714,2.367V9.35a5.714,5.714,0,1,0,11.428,0V4.428a11.885,11.885,0,0,1-5.518-2.219Zm0-2.061.158.151a10.351,10.351,0,0,0,6.873,2.816l.242,0V9.35a7.272,7.272,0,1,1-14.545,0V2.97A10.356,10.356,0,0,0,71.263,0Z" transform="translate(-60.99 1.689)"/></svg>