<svg xmlns="http://www.w3.org/2000/svg" width="20" height="20" viewBox="0 0 20 20"><defs><style>.a{fill:#fff;opacity:0;}.b{fill:none;}</style></defs><g transform="translate(-20 -202.001)"><rect class="a" width="20" height="20" transform="translate(20 202.001)"/><g transform="translate(-23.866 159.201)"><path class="b" d="M63.819,52.124a9.934,9.934,0,0,0-2.28-5.714,1.106,1.106,0,0,0-1.684-.019l0,0a1,1,0,0,0-.1.134V45.37a1.11,1.11,0,0,0-.507-.989A9.916,9.916,0,0,0,53.872,42.8c-.226,0-.456.009-.684.023A10,10,0,0,0,53.859,62.8c.226,0,.456-.009.682-.023a9.99,9.99,0,0,0,9.277-10.652ZM61.2,55.338a7.469,7.469,0,0,1-.311.765H58.629a1.407,1.407,0,0,0-.032-.185,1.108,1.108,0,0,0-.516-.673L55.746,53.9a1.1,1.1,0,0,0-.554-.149h-.034a1.1,1.1,0,0,0-.554.149l-4.7,2.715a1.1,1.1,0,0,0-.554.919v.085a1.1,1.1,0,0,0,.554.919l2.728,1.575a1.1,1.1,0,0,0,.554.149,1.115,1.115,0,0,0,.744-.286l1.179-.68A1.108,1.108,0,1,0,54,57.374l-.838.48-.49-.283,2.5-1.443,1.8,1.038a1.1,1.1,0,0,0,.554.149,1.117,1.117,0,0,0,.961-.554,1.093,1.093,0,0,0,.1-.23H60.68a7.745,7.745,0,0,1-6.287,4.035c-.179.013-.36.019-.537.019a7.772,7.772,0,0,1-7.391-5.43h1.524a1.109,1.109,0,0,0,1.078,1.019h.04a1.114,1.114,0,0,0,.543-.149l2.724-1.573a1.108,1.108,0,1,0-1.11-1.918l-1.066.616V52.97l2.174-1.255a1.11,1.11,0,0,0,.4-1.515,1.114,1.114,0,0,0-.961-.554,1.1,1.1,0,0,0-.554.149l-1.066.616v-.156L52.37,49a1.108,1.108,0,1,0-1.11-1.918l-2.724,1.573a1.121,1.121,0,0,0-.558.965v5.111H46.336a7.795,7.795,0,0,1,4.024-8.875,7.71,7.71,0,0,1,2.971-.814c.179-.013.36-.019.537-.019a7.722,7.722,0,0,1,2.517.422,7.584,7.584,0,0,1,1.142.5v3.674l-2.01-3.483a1.1,1.1,0,0,0-.893-.582h-.013l-.034,0h-.1l-.038,0-.019,0-.038,0-.017,0-.036.006a.108.108,0,0,0-.019,0,.14.14,0,0,0-.032.009l-.021.006-.032.009-.023.006-.03.011-.023.009-.026.011a.114.114,0,0,0-.023.011.13.13,0,0,1-.026.011h0c-.006,0-.015.006-.021.011a.175.175,0,0,0-.028.015.047.047,0,0,0-.017.011.075.075,0,0,0-.017.011l-.019.011-.009,0a1.114,1.114,0,0,0-.529.98v5.411a1.108,1.108,0,1,0,2.217,0V50.8l2.023,3.5a1.114,1.114,0,0,0,.961.554,1.175,1.175,0,0,0,.322-.047l.023-.006.006,0a1.1,1.1,0,0,0,.761-1.053V47.715a.892.892,0,0,0,.085.115A7.764,7.764,0,0,1,61.6,52.276a7.56,7.56,0,0,1-.394,3.063Z"/><path d="M259.269,256.469l-2.724,1.573a.7.7,0,0,0-.209.185.686.686,0,0,0-.136.411v5.445a.682.682,0,0,0,.667.682h.021a.667.667,0,0,0,.337-.092l2.724-1.573a.682.682,0,0,0-.682-1.181l-1.705.985v-1.162l2.387-1.379a.682.682,0,0,0-.682-1.181l-1.705.985v-1.14l2.387-1.379a.681.681,0,0,0-.68-1.181Zm3.689,8.191,2.012,1.161a.682.682,0,1,0,.682-1.181l-2.336-1.349a.745.745,0,0,0-.716,0l-4.7,2.713a.685.685,0,0,0-.341.569v.047a.683.683,0,0,0,.341.569l2.728,1.575a.685.685,0,0,0,.827-.111l1.223-.705a.682.682,0,0,0-.682-1.181l-1.053.6-1.343-.774Z" transform="translate(-207.786 -209.025)"/><path d="M82.929,71.7a9.563,9.563,0,0,0-2.182-5.471A.682.682,0,1,0,79.7,67.1a8.179,8.179,0,1,1-2.2-1.867v5.514l-2.811-4.864a.678.678,0,0,0-.552-.362h-.092a.088.088,0,0,0-.023,0,.019.019,0,0,0-.011,0l-.023,0a.019.019,0,0,0-.011,0l-.021,0-.011,0-.021,0-.013,0-.019.006-.013,0-.017.006a.031.031,0,0,1-.015,0l-.017.006-.015.006-.017.006-.015.006c-.006,0-.011.006-.017.009l-.013.006-.011.006-.009.006-.006,0a.677.677,0,0,0-.324.61v5.418a.682.682,0,0,0,1.364,0v-2.9l2.82,4.883a.681.681,0,0,0,.789.311l.015,0,.006,0a.681.681,0,0,0,.469-.648V64.9a.684.684,0,0,0-.311-.618A9.579,9.579,0,1,0,82.929,71.7Z" transform="translate(-19.535 -19.547)"/></g></g></svg>